<svg width="5000" height="5000" viewBox="0 0 5000 5000" fill="none" xmlns="http://www.w3.org/2000/svg">
<g clip-path="url(#clip0_253_2)">
<rect width="5000" height="5000" fill="#90DAEE"/>
<path d="M2520.5 1904L2533.5 1883L2769 1966H3015.5V1904L2821.5 1849L2835 1790.5L2344.5 1642L2300.5 1790.5L2384.5 1824.5L2376.5 1855L2238 1801.5L2262.5 1708.5H2281.5L2319.5 1619L2061 1512.5L1994.5 1708.5L1956.5 1678L2030.5 1488L1979.5 1463L1777.5 1431L1739.5 1387L1720.5 1402.5L1694 1387L1720.5 1360.5L1519 1113.5H1494.5L1469.5 1090.5L1547.5 918.5L1519 903.5L1482.5 995L1469.5 985.5L1529 822.5L1505.5 814L1469.5 868.5H1436.5L1220 719.5L1089 518.5L1017 271L940 0H0L142.5 518.5L406.5 995L484.5 1556L406.5 1760.5L520 2061L543 2371L406.5 2695.5L223.5 3001L0 3120.5V5000H4440.5L4478 4796.5L4654 4455.5L4755.5 4280.5L5000 3989.5V815.5L4755.5 1251.5L4502 1479L4531.5 1522.5L4581.5 1479L4668 1577L4581.5 1949L4540.5 1935.5L4581.5 1686.5L4442.5 1536L4076 1577L4057.5 1556H3977.5L3989 1631.5L3931.5 1658.5L3823 1515.5L3682.5 1631.5L3748 1760.5L3728.5 1935.5L3659 2020.5L3433.5 1966V1951.5L3251.5 1973.5L3256.5 2012L3229.5 2045.5L3198 2039.5L3196.5 2048.5L3262.5 2061L3260 2078L3229.5 2072.5L3187.5 2085L3182.5 2069.5L3174 2072.5L3187.5 2115L3196.5 2147.5L3209 2241L3216.5 2267.5L3223.5 2293L3236 2312.5L3258.5 2329.5L3288 2333.5H3315L3330 2340.5L3354.92 2373L3372 2405L3390 2468.5L3395 2521.5V2560L3390 2597.5L3366.5 2607L3333 2687L3322.5 2682.5L3354.92 2607L3375.5 2548.5L3380.5 2486L3351 2405L3330 2373L3315 2358.5L3295 2346.5L3267.5 2340.5L3240 2328L3232 2326.5L3227.5 2322.5L3225 2318.5L3220 2311.5L3216.5 2310.5L3213.5 2311.5L3211 2313L3207.5 2340.5L3184 2433.5L3182 2433L3205.5 2340.5L3209 2312.5L3205.5 2293L3187.5 2241L3178 2162.5L3167.5 2128L3146.5 2080.5L3139.5 2054L3135 1990.5L3161.5 1988V1966L3087.5 1973.5L3046 2020.5L2892 2034.5L2884.5 1996.5H2769L2520.5 1904Z" fill="#F5F3F3"/>
<path d="M2958 2465.5L2971 2462.5L2979.5 2458L2993 2446.5H3006.5L3015 2458V2470L3029 2481.5L3055.5 2485.5L3066.5 2470L3074.5 2469L3102 2520L3035 2546L2993 2553.5L2967 2514L2958 2465.5Z" fill="#D3F8E2"/>
<rect x="2460" y="2288" width="87" height="107" fill="#D3F8E2"/>
<rect x="2535" y="2622" width="125" height="66" fill="#D3F8E2"/>
<path d="M2361.27 3464.88L2306.81 3532.49C2306.27 3533.16 2305.82 3533.9 2305.47 3534.68L2260.73 3634.51C2259.34 3637.62 2256.46 3639.81 2253.1 3640.31L2138.83 3657.5C2136.67 3657.82 2134.46 3657.43 2132.54 3656.38L1990.37 3578.48C1989.79 3578.16 1989.25 3577.79 1988.74 3577.36L1941.98 3538.1C1938.7 3535.35 1934.04 3534.99 1930.37 3537.21L1866.18 3576.07C1864.13 3577.32 1862.59 3579.26 1861.85 3581.54L1838.91 3652.11C1837.74 3655.72 1834.63 3658.35 1830.88 3658.91L1666 3683.5L1479.98 3720.41C1478.04 3720.79 1476.25 3721.75 1474.85 3723.15L1424.6 3773.4C1420.15 3777.85 1412.73 3777.12 1409.23 3771.89L1356.76 3693.58C1353.25 3688.36 1345.86 3687.62 1341.4 3692.06L1264.32 3768.74C1258.65 3774.39 1248.96 3771.41 1247.45 3763.54L1219.42 3617.79C1218.84 3614.77 1216.9 3612.18 1214.15 3610.78L1063 3533.5L953.14 3484.41C948.719 3482.44 943.517 3483.91 940.793 3487.92L879.5 3578L752.5 3782L636.506 3924.65C635.516 3925.87 634.253 3926.83 632.82 3927.47L367 4046L234.52 4089.69C229.673 4091.29 224.399 4088.98 222.286 4084.33L152.88 3931.73C151.406 3928.49 151.766 3924.71 153.825 3921.81L223.383 3823.69C225.047 3821.34 225.619 3818.4 224.955 3815.6L204.326 3728.69C203.255 3724.18 199.229 3721 194.596 3721H10C4.47715 3721 0 3725.48 0 3731V4990C0 4995.52 4.47708 5000 9.99993 5000H3679.6C3691.2 5000 3693.5 4983.57 3682.35 4980.38L3626.54 4964.44C3623.38 4963.54 3620.87 4961.15 3619.82 4958.04L3547.68 4745.49C3546.92 4743.24 3546.98 4740.79 3547.86 4738.58L3621.5 4553.5L3679.93 4427.55C3681.51 4424.14 3681.05 4420.14 3678.73 4417.18L3547.92 4249.82C3546.99 4248.62 3545.79 4247.65 3544.43 4246.99L3334.14 4144.47C3329.52 4142.22 3327.36 4136.83 3329.15 4132.01L3356.97 4056.87C3359.09 4051.15 3355.63 4044.87 3349.65 4043.61L3255.02 4023.71C3254.34 4023.57 3253.65 4023.5 3252.96 4023.5H3139.54C3133.12 4023.5 3128.36 4017.53 3129.79 4011.27L3150.04 3922.57C3151.16 3917.67 3155.75 3914.36 3160.75 3914.84L3274.49 3925.82C3278.7 3926.23 3282.7 3923.95 3284.5 3920.13L3325.2 3833.69C3325.73 3832.57 3326.46 3831.56 3327.35 3830.71L3372.59 3787.62C3376.03 3784.35 3376.69 3779.11 3374.18 3775.08L3301 3658L3239.5 3581.72C3237.6 3579.37 3234.74 3578 3231.72 3578H3106.91C3103.81 3578 3100.89 3576.57 3099 3574.12L3011.35 3460.75C3010.46 3459.6 3009.83 3458.26 3009.51 3456.84L2993.06 3384C2992.69 3382.36 2991.92 3380.84 2990.8 3379.58L2899.75 3276.48C2898.6 3275.18 2897.14 3274.2 2895.51 3273.64L2765.72 3228.95C2763.03 3228.03 2760.08 3228.29 2757.6 3229.67L2679.69 3273C2677.94 3273.98 2676.52 3275.46 2675.62 3277.25L2631.21 3365.6C2630.11 3367.79 2628.24 3369.5 2625.96 3370.4L2541.31 3404C2537.5 3405.51 2535 3409.19 2535 3413.29V3528.25C2535 3531.54 2533.38 3534.61 2530.68 3536.48L2476.8 3573.65C2473.08 3576.22 2468.11 3575.97 2464.66 3573.05L2421.53 3536.5C2419.29 3534.6 2418 3531.81 2418 3528.87V3487.63C2418 3483.61 2415.6 3479.98 2411.9 3478.42L2372.95 3461.94C2368.84 3460.2 2364.07 3461.4 2361.27 3464.88Z" fill="#D3F8E2"/>
<path d="M4422.57 4095.22L4384 4340.5L4351.73 4551.97C4351.58 4552.98 4351.27 4553.97 4350.81 4554.89L4282.87 4692.2C4281.39 4695.2 4281.5 4698.74 4283.18 4701.64L4342.81 4804.94C4346.66 4811.62 4356.31 4811.61 4360.14 4804.91L4454.71 4639.87C4455.24 4638.96 4455.61 4637.98 4455.82 4636.95L4501 4422L4590.79 4142.71C4591.26 4141.25 4592.05 4139.93 4593.11 4138.83L4682.5 4046L4996.16 3723.91C4997.98 3722.04 4999 3719.54 4999 3716.94V2486.58C4999 2476.4 4985.57 2472.73 4980.39 2481.5L4721.93 2918.93C4721.31 2919.97 4720.52 2920.89 4719.58 2921.64L4595.24 3021.5C4592.88 3023.4 4591.5 3026.26 4591.5 3029.29V3183.59C4591.5 3185.49 4590.96 3187.35 4589.94 3188.95L4501.85 3327.67C4501.29 3328.55 4500.87 3329.52 4500.61 3330.53L4456.16 3502.46C4455.73 3504.12 4454.87 3505.65 4453.68 3506.89L4354.3 3610.1C4352.5 3611.96 4351.5 3614.45 4351.5 3617.03V3912.07C4351.5 3913.35 4351.74 3914.61 4352.22 3915.79L4421.98 4089.95C4422.65 4091.62 4422.85 4093.44 4422.57 4095.22Z" fill="#D3F8E2"/>
<path d="M635.612 1605.88L586.373 1527.48C580.469 1518.07 565.93 1523.86 568.097 1534.75L597.808 1684.03C597.936 1684.68 598 1685.33 598 1685.99V1762.42C598 1765.03 599.027 1767.55 600.859 1769.42L723 1894L846.584 2006.21C847.519 2007.06 848.286 2008.08 848.842 2009.22L920.128 2154.74C920.375 2155.25 920.665 2155.73 920.995 2156.19L977.836 2235.09C982.23 2241.19 991.532 2240.44 994.894 2233.71L1033.19 2157.11C1033.73 2156.05 1034.07 2154.89 1034.19 2153.71L1051.14 1996.31C1051.38 1994.16 1050.91 1992 1049.81 1990.14L959.298 1837.35C958.769 1836.45 958.105 1835.65 957.329 1834.96L859.839 1748.52C858.01 1746.9 855.65 1746 853.205 1746H759.614C756.686 1746 753.906 1744.72 752.006 1742.49L636.473 1607.05C636.158 1606.69 635.87 1606.29 635.612 1605.88Z" fill="#D3F8E2"/>
<path d="M466.475 3326.33L483.105 3280.71C486.936 3270.2 502.5 3272.95 502.5 3284.13V3377.28C502.5 3379.98 501.411 3382.56 499.48 3384.44L429.845 3452.33C426.016 3456.06 419.927 3456.12 416.026 3452.46L375.489 3414.46C371.023 3410.27 371.334 3403.09 376.145 3399.3L463.263 3330.76C464.725 3329.61 465.838 3328.07 466.475 3326.33Z" fill="#D3F8E2"/>
<path d="M1217.03 971.096L1163.1 883.079C1157.59 874.084 1167.96 863.79 1176.92 869.366L1248.74 914.09C1250.22 915.014 1251.43 916.31 1252.26 917.85L1347.89 1096.07C1349.23 1098.57 1349.45 1101.52 1348.49 1104.19L1310.59 1209.36C1310.2 1210.44 1310 1211.59 1310 1212.75V1391C1310 1396.52 1305.52 1401 1300 1401H1191.03C1186.34 1401 1182.28 1397.74 1181.27 1393.16L1141.95 1215.28C1141.34 1212.55 1141.91 1209.7 1143.51 1207.4L1216.7 1102.58C1217.87 1100.9 1218.5 1098.9 1218.5 1096.85V976.32C1218.5 974.476 1217.99 972.668 1217.03 971.096Z" fill="#D3F8E2"/>
<path d="M2891 2320H2854.5M2743 2326.5H2754.79C2762.56 2326.5 2770.29 2325.41 2777.75 2323.25C2785.21 2321.09 2792.94 2320 2800.71 2320H2854.5M2743 2341H2854.5M2992 2447H3009.1C3024.75 2447 3039.78 2453.1 3051 2464C3057.11 2469.8 3066.14 2471.52 3074 2468.5M2992 2447V2426.5M2992 2447C2982.92 2457.05 2970.77 2463.8 2957.44 2466.2L2903 2476M2817.5 2299.5H2854.5M2891 2299.5H2854.5M2854.5 2320V2341M2854.5 2320V2299.5M2854.5 2341H2891H2943.9C2951.02 2341 2957.88 2343.75 2963.03 2348.67C2965 2350.54 2966.68 2352.7 2968.02 2355.07L2979.06 2374.6C2987.54 2389.61 2992 2406.56 2992 2423.81V2426.5M2854.5 2341V2426.5M2854.5 2876.5V2529M2854.5 2299.5V2283.5M2854.5 2426.5H2545M2854.5 2426.5V2447M2854.5 2426.5H2873H2992M2854.5 2447V2469M2854.5 2447H2873H2893.5M2854.5 2447H2545H2462M2854.5 2469H2545M2854.5 2469V2491M2854.5 2512V2491M2854.5 2512V2529M2854.5 2512H2658.5M2854.5 2491H2545M2818 2529H2854.5" stroke="#D8E0E7" stroke-width="2"/>
<path d="M2743 2289V2327M2743 2327V2360.5M2743 2327H2607M2546.5 2327H2607M2743 2360.5V2394V2520.77C2743 2527.79 2741.11 2534.69 2737.52 2540.73C2734.87 2545.2 2733.13 2550.15 2732.42 2555.3L2723.5 2619.5V2694.5V2762.5M2743 2360.5H2607M2743 2360.5H2817.5M2546.5 2360.5H2607M2607 2360.5V2394V2521.5V2617M2607 2360.5V2327M2607 2327L2613 2289M2817.5 2360.5H2892H2959.5M2817.5 2360.5V2408.5V2547.5V2619.5V2702V2762.5M2817.5 2360.5V2281.5M2822.5 2872.5L2817.5 2813.5V2762.5M2719 2856.5L2723.5 2821.5V2762.5M2607 2683.5V2762.5M2613 2848.5L2609.38 2832.22C2607.8 2825.09 2607 2817.82 2607 2810.52V2762.5M2435.5 2784H2498.16C2505.37 2784 2512.55 2783.22 2519.59 2781.68L2607 2762.5M2607 2762.5H2723.5M2723.5 2762.5H2817.5M2817.5 2762.5H2924.45C2930.14 2762.5 2935.81 2761.97 2941.4 2760.92L2942.14 2760.79C2966.91 2756.14 2988.61 2741.35 3002 2720M3051 2741.5L3037.64 2615.4C3035.34 2593.67 3023.22 2574.2 3004.74 2562.55C2993.79 2555.65 2984.92 2545.89 2979.09 2534.33L2970.22 2516.74C2963.17 2502.78 2959.5 2487.35 2959.5 2471.71V2360.5M2959.5 2360.5L2992 2324" stroke="#D8E0E7" stroke-width="4"/>
<path d="M2892 2407.5V2363V2318.5V2280M2892 2407.5V2431.72C2892 2448.95 2896.45 2465.88 2904.92 2480.89L2925.63 2517.57C2930.79 2526.7 2933.5 2537.01 2933.5 2547.5M2892 2407.5H2797.21C2787.88 2407.5 2778.7 2405.18 2770.5 2400.75C2762.3 2396.32 2753.12 2394 2743.79 2394H2741H2661.5M2892 2407.5H2950.03C2974.19 2407.5 2997.53 2398.75 3015.74 2382.88L3026.5 2373.5M2331 2188H2381.5H2459H2519.24C2524.41 2188 2529.56 2188.4 2534.67 2189.2L2661.5 2209M2947 2179.5L2892 2189.5L2867.5 2194.25L2797.04 2207.32C2791.03 2208.44 2784.92 2209 2778.8 2209H2661.5M2661.5 2394V2351.5V2318.5V2289V2209M2661.5 2394V2458L2657 2529.57M2661.5 2394H2545M2948 2889.5L2936.13 2838.73C2934.38 2831.27 2933.5 2823.63 2933.5 2815.96V2785V2701.5V2630.5M2933.5 2547.5V2630.5M2933.5 2547.5H2727.53C2716.91 2547.5 2706.36 2545.81 2696.27 2542.49L2657 2529.57M2933.5 2547.5L2988.08 2552.17C3002.2 2553.38 3016.41 2551.57 3029.78 2546.87L3100.5 2522M2657 2529.57V2620M2657 2529.57L2654.96 2528.77C2643.42 2524.3 2631.15 2522 2618.78 2522H2545M2652 2852.1L2657 2758V2691.82V2620M2657 2620H2532M2657 2620H2822L2933.5 2630.5M2933.5 2630.5H3074.93C3086.55 2630.5 3098.09 2628.47 3109.02 2624.51L3138 2614M2545 2289V2394M2545 2394V2458V2522M2545 2394H2459M2545 2522V2558.7C2545 2567.53 2543.83 2576.32 2541.52 2584.84L2532 2620M2545 2522H2459M2532 2620V2685.5V2764L2544.5 2862M2532 2620L2459 2614" stroke="#D8E0E7" stroke-width="6"/>
<path d="M2461 2289H2546H2611.12H2663.5H2742L2822.5 2280H2894L2925.55 2283.69C2954.41 2287.06 2980.38 2302.82 2996.69 2326.86L2999.5 2331L3028 2373L3062.59 2438.5L3082.8 2478.75L3103 2519L3139.27 2613L3142.79 2622.12C3147.23 2633.61 3149.5 2645.81 3149.5 2658.13V2779M2461 2289H2333M2461 2289V2357V2394V2458V2522L2456.45 2615L2453 2685.5M3149.5 2927L3158.26 3002.44C3161.59 3031.07 3152.4 3059.75 3133.04 3081.12L3116.01 3099.91C3102.96 3114.32 3094.38 3132.23 3091.35 3151.44L3073.3 3265.59C3071.13 3279.38 3071.86 3293.47 3075.45 3306.96L3138.5 3543.5M3149.5 2927L2950 2889.5L2800 2872.5L2654 2852.1L2634.88 2849.43C2623.38 2847.82 2611.69 2848.23 2600.34 2850.63L2445 2883.5M3149.5 2927V2791M2500 3503L2438.35 3300.76C2435.46 3291.3 2434 3281.48 2434 3271.6V2894M2453 2685.5L2436.28 2762.51C2434.76 2769.48 2434 2776.6 2434 2783.73V2872.5M2453 2685.5H2408L2205.15 2707.62C2196.75 2708.54 2188.27 2708.38 2179.91 2707.17L2062.12 2690.03C2041.86 2687.08 2023 2677.99 2008.07 2663.98L1582.5 2264.5M2453 2685.5H2534.5H2604.75L2659 2691.82L2713.5 2698.18L2742 2701.5H2773.5H2822.5H2935.5H2940.77C2955.09 2701.5 2969.24 2704.57 2982.27 2710.52L3074.8 2752.72C3079.59 2754.9 3084.55 2756.71 3089.62 2758.11L3121.31 2766.88C3132.36 2769.94 3143.84 2771.07 3155.27 2770.24L3304.73 2759.33C3316.81 2758.45 3328.63 2755.38 3339.61 2750.27L3444.5 2701.5M2423 2883.5H2373.5L2103.5 2919L1763.37 2966.61C1742.96 2969.47 1723.92 2978.56 1708.88 2992.66L1424.5 3259" stroke="#D8E0E7" stroke-width="8"/>
<path d="M2967.92 2267.75L2945.57 2256.82C2918.22 2243.45 2888.17 2236.5 2857.73 2236.5H2839H2436.5H2367.61C2352.25 2236.5 2336.95 2234.73 2322 2231.23L2283.2 2222.15C2271.43 2219.39 2259.92 2215.57 2248.83 2210.73L2206.98 2192.47C2196.35 2187.83 2186.14 2182.28 2176.47 2175.87L2023.5 2074.5L1647.5 1782.5L1593.06 1744.94C1554.27 1718.18 1507.28 1705.97 1460.37 1710.47L1408 1715.5L1395.32 1718.17C1316.64 1734.73 1255.53 1796.81 1240.2 1875.73L1231.5 1920.5L1201.44 2292.96C1200.15 2308.93 1196.95 2324.68 1191.9 2339.89L1037.5 2805L1018.42 2855.74C992.323 2925.11 1006.73 3003.22 1055.85 3058.71L1095.5 3103.5L1597 3563.5C1642.5 3612.64 1712.9 3629.91 1775.98 3607.42L2034.29 3515.32C2046.07 3511.11 2057.43 3505.82 2068.23 3499.49L2322.5 3350.5L2419.01 3308.15C2446.96 3295.88 2477.36 3290.17 2507.86 3291.47L2543.54 3292.98C2559.46 3293.66 2575.23 3296.23 2590.54 3300.65L2624.77 3310.54C2633.91 3313.18 2643.23 3315.16 2652.65 3316.47L3010.88 3366.38C3113.72 3380.71 3205.5 3300.84 3205.5 3197V2941L3211.15 2761.51C3211.71 2743.58 3209.86 2725.67 3205.65 2708.23L3187.26 2632.13C3184.43 2620.4 3180.54 2608.95 3175.64 2597.92L3092.42 2410.57C3087.81 2400.21 3082.34 2390.26 3076.05 2380.82L3046.49 2336.49C3026.85 2307.03 2999.74 2283.3 2967.92 2267.75Z" stroke="#FF8178" stroke-width="5"/>
<path d="M2468 2233.5V2409.5V2523.5L2454 2700.5" stroke="#2535C4" stroke-width="5"/>
<path d="M3223 3459L3214 3321V2948.5L3219.16 2745.75C3219.39 2736.95 3218.45 2728.17 3216.37 2719.62L3192.59 2621.62C3191.2 2615.89 3189.3 2610.28 3186.92 2604.88L3096.92 2400.63C3094.98 2396.22 3092.71 2391.95 3090.15 2387.86L3051.12 2325.57C3046.72 2318.55 3041.47 2312.11 3035.49 2306.38L3011.22 2283.18C3003.13 2275.45 2993.8 2269.13 2983.62 2264.48L2931.03 2240.5C2919.45 2235.21 2906.97 2232.19 2894.25 2231.59L2839.5 2229L2371.5 2230" stroke="#FFAE00" stroke-width="5"/>
<path d="M2458.38 2325.59H2459.11V2328.47H2458.38V2325.59ZM2458.38 2331.15H2459.11V2334.78H2458.38V2331.15ZM2457.49 2330.16V2331H2460.07V2330.16H2457.49ZM2457.49 2328.78V2329.6H2460.07V2328.78H2457.49ZM2456.81 2328.19H2460.77V2331.58H2456.81V2328.19ZM2456.52 2326.71H2461.05V2327.39H2456.52V2326.71ZM2461.95 2328.47H2464.84V2329.15H2461.95V2328.47ZM2461.95 2326.08H2464.84V2326.76H2461.95V2326.08ZM2461.93 2330.85H2464.84V2331.54H2461.93V2330.85ZM2456.41 2332.39H2461.07V2333.06H2456.41V2332.39ZM2464.45 2326.08H2465.18V2333.87C2465.18 2334.09 2465.15 2334.26 2465.09 2334.38C2465.04 2334.5 2464.94 2334.59 2464.8 2334.66C2464.66 2334.72 2464.47 2334.76 2464.24 2334.77C2464.01 2334.79 2463.72 2334.8 2463.35 2334.79C2463.34 2334.73 2463.32 2334.65 2463.29 2334.56C2463.26 2334.47 2463.23 2334.38 2463.2 2334.29C2463.17 2334.2 2463.14 2334.12 2463.1 2334.06C2463.36 2334.07 2463.6 2334.07 2463.81 2334.07C2464.03 2334.07 2464.18 2334.07 2464.25 2334.06C2464.32 2334.06 2464.37 2334.04 2464.4 2334.01C2464.43 2333.98 2464.45 2333.93 2464.45 2333.86V2326.08ZM2461.6 2326.08H2462.32V2329.78C2462.32 2330.17 2462.3 2330.59 2462.26 2331.04C2462.23 2331.49 2462.16 2331.94 2462.05 2332.39C2461.95 2332.84 2461.8 2333.27 2461.59 2333.69C2461.39 2334.1 2461.12 2334.48 2460.78 2334.82C2460.74 2334.77 2460.68 2334.72 2460.61 2334.66C2460.54 2334.61 2460.46 2334.55 2460.39 2334.5C2460.32 2334.45 2460.25 2334.41 2460.19 2334.39C2460.52 2334.06 2460.77 2333.71 2460.96 2333.33C2461.15 2332.95 2461.29 2332.56 2461.38 2332.16C2461.47 2331.75 2461.53 2331.35 2461.56 2330.95C2461.59 2330.54 2461.6 2330.15 2461.6 2329.78V2326.08ZM2457.35 2338H2464.64V2338.56H2457.35V2338ZM2457.95 2339.99H2460.07V2340.42H2457.95V2339.99ZM2457.84 2340.87H2460.07V2341.31H2457.84V2340.87ZM2461.87 2340.87H2464.18V2341.31H2461.87V2340.87ZM2461.87 2339.99H2464.04V2340.42H2461.87V2339.99ZM2460.61 2338.21H2461.34V2341.52H2460.61V2338.21ZM2456.78 2339.05H2465.25V2340.74H2464.55V2339.55H2457.46V2340.74H2456.78V2339.05ZM2456.9 2341.72H2460.05V2342.22H2456.9V2341.72ZM2460.86 2344.67H2464.49V2345.2H2460.86V2344.67ZM2456.53 2343.46H2460.36V2343.98H2456.53V2343.46ZM2459.89 2341.72H2460.04L2460.17 2341.69L2460.56 2341.98C2460.32 2342.21 2460.04 2342.44 2459.71 2342.65C2459.38 2342.86 2459.07 2343.03 2458.76 2343.18C2458.73 2343.13 2458.68 2343.07 2458.61 2343C2458.54 2342.93 2458.49 2342.88 2458.44 2342.84C2458.7 2342.72 2458.97 2342.57 2459.24 2342.38C2459.51 2342.19 2459.73 2342.01 2459.89 2341.83V2341.72ZM2460.19 2343.46H2460.29L2460.4 2343.43L2460.8 2343.56C2460.7 2343.85 2460.59 2344.14 2460.46 2344.44C2460.33 2344.73 2460.21 2344.98 2460.08 2345.19L2459.59 2345C2459.69 2344.81 2459.79 2344.59 2459.9 2344.33C2460.01 2344.06 2460.11 2343.81 2460.19 2343.56V2343.46ZM2458.29 2343.6L2458.76 2343.88C2458.63 2344.15 2458.47 2344.43 2458.26 2344.72C2458.05 2345.01 2457.83 2345.27 2457.58 2345.52C2457.34 2345.77 2457.1 2345.98 2456.85 2346.15C2456.8 2346.07 2456.74 2345.98 2456.66 2345.89C2456.58 2345.8 2456.5 2345.72 2456.43 2345.67C2456.67 2345.53 2456.91 2345.35 2457.15 2345.13C2457.39 2344.9 2457.61 2344.66 2457.81 2344.39C2458.01 2344.12 2458.17 2343.86 2458.29 2343.6ZM2458.48 2343.68H2459.13V2346.13C2459.13 2346.29 2459.11 2346.41 2459.07 2346.5C2459.04 2346.59 2458.96 2346.65 2458.85 2346.7C2458.74 2346.75 2458.59 2346.77 2458.42 2346.78C2458.25 2346.79 2458.03 2346.79 2457.77 2346.79C2457.76 2346.71 2457.73 2346.62 2457.69 2346.51C2457.65 2346.41 2457.61 2346.32 2457.56 2346.25C2457.75 2346.26 2457.92 2346.26 2458.06 2346.26C2458.2 2346.26 2458.3 2346.26 2458.35 2346.25C2458.4 2346.24 2458.44 2346.23 2458.45 2346.21C2458.47 2346.2 2458.48 2346.17 2458.48 2346.12V2343.68ZM2457.41 2342.85L2457.75 2342.47C2457.98 2342.52 2458.23 2342.59 2458.48 2342.68C2458.74 2342.76 2458.99 2342.85 2459.23 2342.95C2459.47 2343.04 2459.67 2343.14 2459.82 2343.23L2459.47 2343.65C2459.32 2343.56 2459.12 2343.46 2458.89 2343.36C2458.66 2343.26 2458.41 2343.17 2458.15 2343.08C2457.9 2342.99 2457.65 2342.91 2457.41 2342.85ZM2462.11 2341.4L2462.71 2341.49C2462.52 2341.81 2462.28 2342.12 2461.99 2342.42C2461.7 2342.71 2461.35 2342.98 2460.93 2343.23C2460.88 2343.17 2460.82 2343.1 2460.73 2343.02C2460.65 2342.94 2460.58 2342.88 2460.51 2342.84C2460.9 2342.64 2461.22 2342.41 2461.49 2342.16C2461.76 2341.9 2461.96 2341.65 2462.11 2341.4ZM2461.99 2341.92H2465.27V2342.42H2461.53L2461.99 2341.92ZM2464.29 2344.67H2464.95C2464.95 2344.67 2464.95 2344.7 2464.94 2344.77C2464.93 2344.84 2464.93 2344.9 2464.92 2344.95C2464.86 2345.45 2464.8 2345.82 2464.73 2346.07C2464.66 2346.32 2464.58 2346.49 2464.48 2346.59C2464.41 2346.66 2464.32 2346.7 2464.23 2346.73C2464.14 2346.76 2464.04 2346.77 2463.92 2346.78C2463.82 2346.79 2463.68 2346.79 2463.49 2346.78C2463.3 2346.78 2463.1 2346.77 2462.89 2346.76C2462.88 2346.69 2462.86 2346.6 2462.83 2346.5C2462.8 2346.4 2462.77 2346.31 2462.73 2346.24C2462.93 2346.26 2463.12 2346.27 2463.29 2346.27C2463.46 2346.28 2463.58 2346.28 2463.65 2346.28C2463.73 2346.28 2463.79 2346.28 2463.83 2346.27C2463.88 2346.26 2463.92 2346.24 2463.95 2346.21C2464.02 2346.14 2464.08 2346 2464.13 2345.79C2464.19 2345.57 2464.24 2345.23 2464.29 2344.76V2344.67ZM2462.48 2344.14H2463.11C2463.07 2344.51 2463 2344.84 2462.91 2345.13C2462.82 2345.42 2462.68 2345.67 2462.49 2345.89C2462.3 2346.1 2462.06 2346.29 2461.75 2346.44C2461.44 2346.6 2461.06 2346.73 2460.6 2346.84C2460.57 2346.77 2460.52 2346.68 2460.45 2346.58C2460.38 2346.48 2460.32 2346.4 2460.25 2346.35C2460.67 2346.26 2461.01 2346.16 2461.28 2346.03C2461.55 2345.9 2461.77 2345.75 2461.93 2345.57C2462.1 2345.39 2462.22 2345.18 2462.3 2344.95C2462.39 2344.72 2462.45 2344.45 2462.48 2344.14ZM2461.83 2342.3C2462.04 2342.59 2462.33 2342.85 2462.7 2343.07C2463.07 2343.28 2463.5 2343.46 2463.98 2343.6C2464.47 2343.73 2464.98 2343.83 2465.53 2343.9C2465.46 2343.96 2465.39 2344.04 2465.32 2344.14C2465.25 2344.24 2465.2 2344.33 2465.16 2344.41C2464.6 2344.33 2464.07 2344.2 2463.58 2344.03C2463.09 2343.86 2462.65 2343.64 2462.26 2343.37C2461.88 2343.1 2461.57 2342.79 2461.32 2342.44L2461.83 2342.3ZM2464.08 2342.1L2464.67 2342.21C2464.47 2342.62 2464.18 2342.98 2463.79 2343.27C2463.41 2343.56 2462.98 2343.8 2462.49 2344C2462 2344.19 2461.5 2344.35 2460.98 2344.48C2460.95 2344.41 2460.89 2344.33 2460.82 2344.23C2460.75 2344.12 2460.68 2344.04 2460.62 2343.99C2461.13 2343.89 2461.61 2343.76 2462.07 2343.6C2462.54 2343.44 2462.95 2343.24 2463.3 2342.99C2463.65 2342.74 2463.91 2342.45 2464.08 2342.1ZM2456.62 2352.47H2465.42V2353.24H2456.62V2352.47ZM2461.49 2352.78C2461.72 2353.59 2462.01 2354.34 2462.38 2355.04C2462.75 2355.73 2463.21 2356.34 2463.74 2356.86C2464.28 2357.38 2464.89 2357.79 2465.58 2358.08C2465.52 2358.13 2465.45 2358.2 2465.38 2358.28C2465.31 2358.37 2465.25 2358.45 2465.18 2358.54C2465.11 2358.63 2465.06 2358.71 2465.02 2358.78C2464.3 2358.43 2463.66 2357.98 2463.11 2357.41C2462.56 2356.84 2462.1 2356.18 2461.71 2355.43C2461.32 2354.68 2461 2353.85 2460.75 2352.96L2461.49 2352.78ZM2460.61 2349.61H2461.42C2461.42 2350.04 2461.41 2350.53 2461.38 2351.06C2461.36 2351.59 2461.31 2352.14 2461.23 2352.71C2461.15 2353.28 2461.02 2353.85 2460.83 2354.43C2460.65 2355 2460.4 2355.56 2460.07 2356.1C2459.75 2356.63 2459.34 2357.13 2458.84 2357.59C2458.34 2358.05 2457.73 2358.45 2457 2358.78C2456.94 2358.68 2456.85 2358.57 2456.74 2358.45C2456.63 2358.34 2456.53 2358.24 2456.43 2358.16C2457.14 2357.85 2457.73 2357.49 2458.21 2357.06C2458.7 2356.63 2459.09 2356.17 2459.4 2355.66C2459.71 2355.15 2459.94 2354.63 2460.11 2354.09C2460.28 2353.55 2460.39 2353.01 2460.46 2352.48C2460.53 2351.94 2460.57 2351.43 2460.58 2350.94C2460.6 2350.45 2460.61 2350.01 2460.61 2349.61ZM2459.11 2362.87H2465.47V2363.5H2459.11V2362.87ZM2461.84 2363.15L2462.69 2363.23C2462.61 2363.48 2462.52 2363.74 2462.43 2363.99C2462.34 2364.24 2462.26 2364.46 2462.18 2364.65L2461.56 2364.52C2461.61 2364.33 2461.67 2364.1 2461.72 2363.84C2461.78 2363.57 2461.82 2363.34 2461.84 2363.15ZM2463.58 2361.6L2464.35 2361.78C2464.21 2362.01 2464.07 2362.25 2463.92 2362.48C2463.77 2362.71 2463.63 2362.9 2463.5 2363.07L2462.88 2362.9C2462.96 2362.77 2463.04 2362.63 2463.13 2362.48C2463.22 2362.33 2463.3 2362.17 2463.38 2362.02C2463.47 2361.86 2463.53 2361.72 2463.58 2361.6ZM2460.17 2361.85L2460.76 2361.62C2460.92 2361.79 2461.07 2361.98 2461.21 2362.19C2461.35 2362.4 2461.45 2362.59 2461.5 2362.75L2460.88 2363.02C2460.83 2362.86 2460.73 2362.67 2460.6 2362.45C2460.47 2362.22 2460.32 2362.02 2460.17 2361.85ZM2458.62 2365.55V2369.09H2457.89V2366.25H2456.49V2365.55H2458.62ZM2458.62 2368.76C2458.86 2369.13 2459.19 2369.4 2459.62 2369.58C2460.05 2369.76 2460.55 2369.86 2461.13 2369.88C2461.4 2369.89 2461.73 2369.9 2462.12 2369.91C2462.51 2369.91 2462.92 2369.91 2463.35 2369.9C2463.78 2369.89 2464.2 2369.88 2464.6 2369.87C2465 2369.86 2465.35 2369.84 2465.65 2369.82C2465.62 2369.87 2465.58 2369.95 2465.55 2370.04C2465.52 2370.13 2465.49 2370.23 2465.46 2370.32C2465.43 2370.42 2465.41 2370.51 2465.4 2370.58C2465.13 2370.59 2464.8 2370.6 2464.43 2370.61C2464.06 2370.62 2463.67 2370.62 2463.27 2370.62C2462.87 2370.63 2462.48 2370.63 2462.1 2370.62C2461.73 2370.62 2461.4 2370.62 2461.13 2370.61C2460.48 2370.58 2459.92 2370.48 2459.45 2370.29C2458.99 2370.1 2458.6 2369.81 2458.28 2369.41C2458.04 2369.62 2457.79 2369.84 2457.54 2370.05C2457.29 2370.27 2457.02 2370.49 2456.75 2370.72L2456.36 2369.95C2456.6 2369.79 2456.86 2369.61 2457.13 2369.4C2457.41 2369.19 2457.68 2368.97 2457.94 2368.76H2458.62ZM2456.6 2362.29L2457.15 2361.84C2457.37 2361.98 2457.59 2362.14 2457.82 2362.33C2458.05 2362.51 2458.25 2362.69 2458.44 2362.88C2458.63 2363.07 2458.79 2363.24 2458.91 2363.4L2458.31 2363.9C2458.21 2363.74 2458.06 2363.56 2457.87 2363.37C2457.68 2363.18 2457.48 2362.99 2457.25 2362.8C2457.03 2362.61 2456.81 2362.44 2456.6 2362.29ZM2460.62 2366.25V2367.08H2463.95V2366.25H2460.62ZM2460.62 2367.63V2368.47H2463.95V2367.63H2460.62ZM2460.62 2364.88V2365.7H2463.95V2364.88H2460.62ZM2459.91 2364.3H2464.69V2369.06H2459.91V2364.3Z" fill="black"/>
<path d="M2540.48 2326.77H2545.05V2327.44H2540.48V2326.77ZM2541.43 2328.96V2330.45H2544.04V2328.96H2541.43ZM2540.78 2328.36H2544.72V2331.05H2540.78V2328.36ZM2542.43 2330.71L2542.97 2330.91C2542.82 2331.32 2542.63 2331.73 2542.4 2332.14C2542.17 2332.55 2541.93 2332.92 2541.66 2333.26C2541.39 2333.6 2541.12 2333.89 2540.83 2334.12C2540.78 2334.04 2540.7 2333.95 2540.6 2333.85C2540.51 2333.74 2540.42 2333.66 2540.34 2333.59C2540.61 2333.4 2540.88 2333.15 2541.15 2332.84C2541.42 2332.53 2541.66 2332.2 2541.88 2331.83C2542.11 2331.46 2542.29 2331.08 2542.43 2330.71ZM2543.09 2331.21C2543.18 2331.27 2543.31 2331.37 2543.48 2331.51C2543.65 2331.65 2543.84 2331.8 2544.03 2331.97C2544.23 2332.13 2544.41 2332.28 2544.57 2332.42C2544.74 2332.56 2544.85 2332.66 2544.92 2332.73L2544.49 2333.33C2544.4 2333.22 2544.28 2333.09 2544.13 2332.93C2543.98 2332.76 2543.81 2332.59 2543.63 2332.41C2543.45 2332.23 2543.28 2332.06 2543.12 2331.91C2542.96 2331.76 2542.83 2331.64 2542.73 2331.55L2543.09 2331.21ZM2546.11 2327.46H2549.57V2328.16H2546.11V2327.46ZM2546.39 2325.6L2547.13 2325.72C2547.02 2326.33 2546.89 2326.93 2546.72 2327.51C2546.56 2328.09 2546.37 2328.63 2546.16 2329.13C2545.95 2329.62 2545.7 2330.06 2545.43 2330.44C2545.4 2330.39 2545.34 2330.34 2545.27 2330.28C2545.2 2330.22 2545.12 2330.16 2545.04 2330.1C2544.96 2330.03 2544.89 2329.98 2544.83 2329.95C2545.1 2329.6 2545.33 2329.2 2545.53 2328.74C2545.73 2328.28 2545.9 2327.78 2546.04 2327.25C2546.18 2326.72 2546.3 2326.17 2546.39 2325.6ZM2548.24 2327.85L2548.96 2327.91C2548.8 2329.06 2548.57 2330.08 2548.27 2330.95C2547.97 2331.82 2547.56 2332.58 2547.03 2333.21C2546.51 2333.84 2545.84 2334.38 2545.02 2334.82C2545 2334.76 2544.96 2334.69 2544.91 2334.61C2544.86 2334.54 2544.81 2334.46 2544.75 2334.38C2544.7 2334.3 2544.65 2334.24 2544.6 2334.19C2545.37 2333.81 2546 2333.33 2546.49 2332.74C2546.98 2332.15 2547.37 2331.46 2547.64 2330.65C2547.91 2329.84 2548.11 2328.9 2548.24 2327.85ZM2546.48 2328.06C2546.62 2328.97 2546.82 2329.83 2547.09 2330.63C2547.36 2331.43 2547.71 2332.13 2548.13 2332.74C2548.56 2333.34 2549.07 2333.81 2549.68 2334.14C2549.63 2334.19 2549.57 2334.24 2549.5 2334.31C2549.43 2334.38 2549.37 2334.45 2549.32 2334.52C2549.27 2334.6 2549.22 2334.67 2549.18 2334.74C2548.54 2334.36 2548 2333.85 2547.56 2333.2C2547.13 2332.55 2546.77 2331.79 2546.49 2330.94C2546.22 2330.09 2546 2329.16 2545.83 2328.16L2546.48 2328.06ZM2542.43 2325.61H2543.16V2328.6H2542.43V2325.61ZM2542.46 2328.58H2543.09V2330.7H2543.14V2334.78H2542.42V2330.7H2542.46V2328.58ZM2543.21 2338.71H2549.62V2339.4H2543.21V2338.71ZM2544.2 2341.01V2342.51H2548.57V2341.01H2544.2ZM2543.5 2340.38H2549.29V2343.15H2543.5V2340.38ZM2544.13 2343.35C2544.44 2343.88 2544.87 2344.33 2545.41 2344.71C2545.96 2345.09 2546.59 2345.4 2547.32 2345.64C2548.05 2345.88 2548.85 2346.05 2549.72 2346.14C2549.67 2346.19 2549.61 2346.26 2549.55 2346.34C2549.49 2346.42 2549.44 2346.5 2549.39 2346.58C2549.34 2346.67 2549.3 2346.75 2549.27 2346.82C2548.38 2346.69 2547.57 2346.48 2546.83 2346.2C2546.09 2345.93 2545.44 2345.57 2544.88 2345.14C2544.32 2344.7 2543.86 2344.17 2543.5 2343.56L2544.13 2343.35ZM2545.99 2337.64H2546.72V2342.06C2546.72 2342.45 2546.7 2342.83 2546.66 2343.21C2546.62 2343.59 2546.54 2343.96 2546.41 2344.31C2546.28 2344.66 2546.09 2345 2545.84 2345.31C2545.59 2345.62 2545.25 2345.91 2544.84 2346.17C2544.43 2346.43 2543.92 2346.65 2543.3 2346.83C2543.27 2346.78 2543.22 2346.71 2543.17 2346.63C2543.12 2346.56 2543.06 2346.48 2543.01 2346.4C2542.96 2346.32 2542.9 2346.26 2542.84 2346.21C2543.44 2346.06 2543.93 2345.87 2544.32 2345.65C2544.71 2345.43 2545.01 2345.18 2545.23 2344.91C2545.46 2344.63 2545.62 2344.34 2545.73 2344.03C2545.84 2343.72 2545.91 2343.39 2545.94 2343.06C2545.97 2342.73 2545.99 2342.39 2545.99 2342.06V2337.64ZM2542.78 2337.58L2543.48 2337.8C2543.25 2338.36 2542.99 2338.91 2542.68 2339.46C2542.38 2340.01 2542.05 2340.52 2541.7 2341C2541.35 2341.48 2541 2341.91 2540.63 2342.28C2540.6 2342.22 2540.56 2342.14 2540.51 2342.05C2540.46 2341.96 2540.41 2341.86 2540.36 2341.77C2540.31 2341.68 2540.26 2341.6 2540.21 2341.54C2540.54 2341.22 2540.87 2340.85 2541.19 2340.43C2541.51 2340 2541.81 2339.55 2542.08 2339.07C2542.35 2338.58 2542.59 2338.09 2542.78 2337.58ZM2541.73 2340.19L2542.43 2339.48L2542.45 2339.49V2346.84H2541.73V2340.19ZM2543.1 2350.86H2546.49V2351.51H2543.1V2350.86ZM2546.94 2350.19H2549.46V2350.86H2546.94V2350.19ZM2546.85 2352.87H2549.6V2353.55H2546.85V2352.87ZM2542.9 2352.85H2546.67V2353.52H2542.9V2352.85ZM2544.43 2349.6H2545.14V2353.24H2544.43V2349.6ZM2542.96 2354.96H2546.6V2355.62H2542.96V2354.96ZM2544.42 2353.73H2545.14V2357.4L2544.42 2357.54V2353.73ZM2542.68 2357.38C2543.03 2357.34 2543.44 2357.3 2543.89 2357.25C2544.34 2357.2 2544.82 2357.14 2545.33 2357.08C2545.84 2357.01 2546.34 2356.95 2546.85 2356.89L2546.87 2357.55C2546.14 2357.64 2545.41 2357.74 2544.68 2357.83C2543.96 2357.92 2543.32 2358.01 2542.77 2358.08L2542.68 2357.38ZM2547.92 2353.15H2548.66V2357.88C2548.66 2358.1 2548.63 2358.27 2548.58 2358.39C2548.53 2358.51 2548.43 2358.6 2548.28 2358.66C2548.13 2358.72 2547.94 2358.76 2547.69 2358.77C2547.44 2358.79 2547.14 2358.8 2546.78 2358.8C2546.77 2358.69 2546.74 2358.57 2546.69 2358.42C2546.65 2358.28 2546.6 2358.16 2546.55 2358.05C2546.83 2358.06 2547.08 2358.06 2547.29 2358.06C2547.51 2358.07 2547.66 2358.07 2547.73 2358.06C2547.81 2358.05 2547.86 2358.04 2547.88 2358.01C2547.91 2357.98 2547.92 2357.94 2547.92 2357.88V2353.15ZM2542.09 2349.6L2542.78 2349.85C2542.62 2350.12 2542.43 2350.4 2542.2 2350.69C2541.97 2350.97 2541.73 2351.24 2541.48 2351.49C2541.23 2351.74 2540.98 2351.97 2540.72 2352.17C2540.69 2352.12 2540.65 2352.07 2540.6 2352C2540.55 2351.93 2540.5 2351.86 2540.45 2351.79C2540.4 2351.72 2540.35 2351.66 2540.31 2351.61C2540.54 2351.44 2540.76 2351.24 2540.99 2351.02C2541.22 2350.79 2541.44 2350.56 2541.63 2350.31C2541.82 2350.06 2541.98 2349.83 2542.09 2349.6ZM2541.5 2353.59L2542.1 2352.98L2542.19 2353.01V2358.81H2541.5V2353.59ZM2542.39 2351.61L2543.06 2351.84C2542.87 2352.25 2542.64 2352.66 2542.37 2353.07C2542.1 2353.47 2541.82 2353.85 2541.52 2354.2C2541.22 2354.55 2540.92 2354.87 2540.61 2355.14C2540.58 2355.09 2540.54 2355.02 2540.49 2354.94C2540.44 2354.85 2540.38 2354.77 2540.32 2354.69C2540.26 2354.6 2540.21 2354.54 2540.16 2354.49C2540.59 2354.14 2541.01 2353.71 2541.41 2353.2C2541.81 2352.69 2542.14 2352.16 2542.39 2351.61ZM2543.11 2362.87H2549.47V2363.5H2543.11V2362.87ZM2545.84 2363.15L2546.69 2363.23C2546.61 2363.48 2546.52 2363.74 2546.43 2363.99C2546.34 2364.24 2546.26 2364.46 2546.18 2364.65L2545.56 2364.52C2545.61 2364.33 2545.67 2364.1 2545.72 2363.84C2545.78 2363.57 2545.82 2363.34 2545.84 2363.15ZM2547.58 2361.6L2548.35 2361.78C2548.21 2362.01 2548.07 2362.25 2547.92 2362.48C2547.77 2362.71 2547.63 2362.9 2547.5 2363.07L2546.88 2362.9C2546.96 2362.77 2547.04 2362.63 2547.13 2362.48C2547.22 2362.33 2547.3 2362.17 2547.38 2362.02C2547.47 2361.86 2547.53 2361.72 2547.58 2361.6ZM2544.17 2361.85L2544.76 2361.62C2544.92 2361.79 2545.07 2361.98 2545.21 2362.19C2545.35 2362.4 2545.45 2362.59 2545.5 2362.75L2544.88 2363.02C2544.83 2362.86 2544.73 2362.67 2544.6 2362.45C2544.47 2362.22 2544.32 2362.02 2544.17 2361.85ZM2542.62 2365.55V2369.09H2541.89V2366.25H2540.49V2365.55H2542.62ZM2542.62 2368.76C2542.86 2369.13 2543.19 2369.4 2543.62 2369.58C2544.05 2369.76 2544.55 2369.86 2545.13 2369.88C2545.4 2369.89 2545.73 2369.9 2546.12 2369.91C2546.51 2369.91 2546.92 2369.91 2547.35 2369.9C2547.78 2369.89 2548.2 2369.88 2548.6 2369.87C2549 2369.86 2549.35 2369.84 2549.65 2369.82C2549.62 2369.87 2549.58 2369.95 2549.55 2370.04C2549.52 2370.13 2549.49 2370.23 2549.46 2370.32C2549.43 2370.42 2549.41 2370.51 2549.4 2370.58C2549.13 2370.59 2548.8 2370.6 2548.43 2370.61C2548.06 2370.62 2547.67 2370.62 2547.27 2370.62C2546.87 2370.63 2546.48 2370.63 2546.1 2370.62C2545.73 2370.62 2545.4 2370.62 2545.13 2370.61C2544.48 2370.58 2543.92 2370.48 2543.45 2370.29C2542.99 2370.1 2542.6 2369.81 2542.28 2369.41C2542.04 2369.62 2541.79 2369.84 2541.54 2370.05C2541.29 2370.27 2541.02 2370.49 2540.75 2370.72L2540.36 2369.95C2540.6 2369.79 2540.86 2369.61 2541.13 2369.4C2541.41 2369.19 2541.68 2368.97 2541.94 2368.76H2542.62ZM2540.6 2362.29L2541.15 2361.84C2541.37 2361.98 2541.59 2362.14 2541.82 2362.33C2542.05 2362.51 2542.25 2362.69 2542.44 2362.88C2542.63 2363.07 2542.79 2363.24 2542.91 2363.4L2542.31 2363.9C2542.21 2363.74 2542.06 2363.56 2541.87 2363.37C2541.68 2363.18 2541.48 2362.99 2541.25 2362.8C2541.03 2362.61 2540.81 2362.44 2540.6 2362.29ZM2544.62 2366.25V2367.08H2547.95V2366.25H2544.62ZM2544.62 2367.63V2368.47H2547.95V2367.63H2544.62ZM2544.62 2364.88V2365.7H2547.95V2364.88H2544.62ZM2543.91 2364.3H2548.69V2369.06H2543.91V2364.3Z" fill="black"/>
<path d="M2657.48 2328.77H2662.05V2329.44H2657.48V2328.77ZM2658.43 2330.96V2332.45H2661.04V2330.96H2658.43ZM2657.78 2330.36H2661.72V2333.05H2657.78V2330.36ZM2659.43 2332.71L2659.97 2332.91C2659.82 2333.32 2659.63 2333.73 2659.4 2334.14C2659.17 2334.55 2658.93 2334.92 2658.66 2335.26C2658.39 2335.6 2658.12 2335.89 2657.83 2336.12C2657.78 2336.04 2657.7 2335.95 2657.6 2335.85C2657.51 2335.74 2657.42 2335.66 2657.34 2335.59C2657.61 2335.4 2657.88 2335.15 2658.15 2334.84C2658.42 2334.53 2658.66 2334.2 2658.88 2333.83C2659.11 2333.46 2659.29 2333.08 2659.43 2332.71ZM2660.09 2333.21C2660.18 2333.27 2660.31 2333.37 2660.48 2333.51C2660.65 2333.65 2660.84 2333.8 2661.03 2333.97C2661.23 2334.13 2661.41 2334.28 2661.57 2334.42C2661.74 2334.56 2661.85 2334.66 2661.92 2334.73L2661.49 2335.33C2661.4 2335.22 2661.28 2335.09 2661.13 2334.93C2660.98 2334.76 2660.81 2334.59 2660.63 2334.41C2660.45 2334.23 2660.28 2334.06 2660.12 2333.91C2659.96 2333.76 2659.83 2333.64 2659.73 2333.55L2660.09 2333.21ZM2663.11 2329.46H2666.57V2330.16H2663.11V2329.46ZM2663.39 2327.6L2664.13 2327.72C2664.02 2328.33 2663.89 2328.93 2663.72 2329.51C2663.56 2330.09 2663.37 2330.63 2663.16 2331.13C2662.95 2331.62 2662.7 2332.06 2662.43 2332.44C2662.4 2332.39 2662.34 2332.34 2662.27 2332.28C2662.2 2332.22 2662.12 2332.16 2662.04 2332.1C2661.96 2332.03 2661.89 2331.98 2661.83 2331.95C2662.1 2331.6 2662.33 2331.2 2662.53 2330.74C2662.73 2330.28 2662.9 2329.78 2663.04 2329.25C2663.18 2328.72 2663.3 2328.17 2663.39 2327.6ZM2665.24 2329.85L2665.96 2329.91C2665.8 2331.06 2665.57 2332.08 2665.27 2332.95C2664.97 2333.82 2664.56 2334.58 2664.03 2335.21C2663.51 2335.84 2662.84 2336.38 2662.02 2336.82C2662 2336.76 2661.96 2336.69 2661.91 2336.61C2661.86 2336.54 2661.81 2336.46 2661.75 2336.38C2661.7 2336.3 2661.65 2336.24 2661.6 2336.19C2662.37 2335.81 2663 2335.33 2663.49 2334.74C2663.98 2334.15 2664.37 2333.46 2664.64 2332.65C2664.91 2331.84 2665.11 2330.9 2665.24 2329.85ZM2663.48 2330.06C2663.62 2330.97 2663.82 2331.83 2664.09 2332.63C2664.36 2333.43 2664.71 2334.13 2665.13 2334.74C2665.56 2335.34 2666.07 2335.81 2666.68 2336.14C2666.63 2336.19 2666.57 2336.24 2666.5 2336.31C2666.43 2336.38 2666.37 2336.45 2666.32 2336.52C2666.27 2336.6 2666.22 2336.67 2666.18 2336.74C2665.54 2336.36 2665 2335.85 2664.56 2335.2C2664.13 2334.55 2663.77 2333.79 2663.49 2332.94C2663.22 2332.09 2663 2331.16 2662.83 2330.16L2663.48 2330.06ZM2659.43 2327.61H2660.16V2330.6H2659.43V2327.61ZM2659.46 2330.58H2660.09V2332.7H2660.14V2336.78H2659.42V2332.7H2659.46V2330.58ZM2660.21 2340.71H2666.62V2341.4H2660.21V2340.71ZM2661.2 2343.01V2344.51H2665.57V2343.01H2661.2ZM2660.5 2342.38H2666.29V2345.15H2660.5V2342.38ZM2661.13 2345.35C2661.44 2345.88 2661.87 2346.33 2662.41 2346.71C2662.96 2347.09 2663.59 2347.4 2664.32 2347.64C2665.05 2347.88 2665.85 2348.05 2666.72 2348.14C2666.67 2348.19 2666.61 2348.26 2666.55 2348.34C2666.49 2348.42 2666.44 2348.5 2666.39 2348.58C2666.34 2348.67 2666.3 2348.75 2666.27 2348.82C2665.38 2348.69 2664.57 2348.48 2663.83 2348.2C2663.09 2347.93 2662.44 2347.57 2661.88 2347.14C2661.32 2346.7 2660.86 2346.17 2660.5 2345.56L2661.13 2345.35ZM2662.99 2339.64H2663.72V2344.06C2663.72 2344.45 2663.7 2344.83 2663.66 2345.21C2663.62 2345.59 2663.54 2345.96 2663.41 2346.31C2663.28 2346.66 2663.09 2347 2662.84 2347.31C2662.59 2347.62 2662.25 2347.91 2661.84 2348.17C2661.43 2348.43 2660.92 2348.65 2660.3 2348.83C2660.27 2348.78 2660.22 2348.71 2660.17 2348.63C2660.12 2348.56 2660.06 2348.48 2660.01 2348.4C2659.96 2348.32 2659.9 2348.26 2659.84 2348.21C2660.44 2348.06 2660.93 2347.87 2661.32 2347.65C2661.71 2347.43 2662.01 2347.18 2662.23 2346.91C2662.46 2346.63 2662.62 2346.34 2662.73 2346.03C2662.84 2345.72 2662.91 2345.39 2662.94 2345.06C2662.97 2344.73 2662.99 2344.39 2662.99 2344.06V2339.64ZM2659.78 2339.58L2660.48 2339.8C2660.25 2340.36 2659.99 2340.91 2659.68 2341.46C2659.38 2342.01 2659.05 2342.52 2658.7 2343C2658.35 2343.48 2658 2343.91 2657.63 2344.28C2657.6 2344.22 2657.56 2344.14 2657.51 2344.05C2657.46 2343.96 2657.41 2343.86 2657.36 2343.77C2657.31 2343.68 2657.26 2343.6 2657.21 2343.54C2657.54 2343.22 2657.87 2342.85 2658.19 2342.43C2658.51 2342 2658.81 2341.55 2659.08 2341.07C2659.35 2340.58 2659.59 2340.09 2659.78 2339.58ZM2658.73 2342.19L2659.43 2341.48L2659.45 2341.49V2348.84H2658.73V2342.19ZM2660.1 2352.86H2663.49V2353.51H2660.1V2352.86ZM2663.94 2352.19H2666.46V2352.86H2663.94V2352.19ZM2663.85 2354.87H2666.6V2355.55H2663.85V2354.87ZM2659.9 2354.85H2663.67V2355.52H2659.9V2354.85ZM2661.43 2351.6H2662.14V2355.24H2661.43V2351.6ZM2659.96 2356.96H2663.6V2357.62H2659.96V2356.96ZM2661.42 2355.73H2662.14V2359.4L2661.42 2359.54V2355.73ZM2659.68 2359.38C2660.03 2359.34 2660.44 2359.3 2660.89 2359.25C2661.34 2359.2 2661.82 2359.14 2662.33 2359.08C2662.84 2359.01 2663.34 2358.95 2663.85 2358.89L2663.87 2359.55C2663.14 2359.64 2662.41 2359.74 2661.68 2359.83C2660.96 2359.92 2660.32 2360.01 2659.77 2360.08L2659.68 2359.38ZM2664.92 2355.15H2665.66V2359.88C2665.66 2360.1 2665.63 2360.27 2665.58 2360.39C2665.53 2360.51 2665.43 2360.6 2665.28 2360.66C2665.13 2360.72 2664.94 2360.76 2664.69 2360.77C2664.44 2360.79 2664.14 2360.8 2663.78 2360.8C2663.77 2360.69 2663.74 2360.57 2663.69 2360.42C2663.65 2360.28 2663.6 2360.16 2663.55 2360.05C2663.83 2360.06 2664.08 2360.06 2664.29 2360.06C2664.51 2360.07 2664.66 2360.07 2664.73 2360.06C2664.81 2360.05 2664.86 2360.04 2664.88 2360.01C2664.91 2359.98 2664.92 2359.94 2664.92 2359.88V2355.15ZM2659.09 2351.6L2659.78 2351.85C2659.62 2352.12 2659.43 2352.4 2659.2 2352.69C2658.97 2352.97 2658.73 2353.24 2658.48 2353.49C2658.23 2353.74 2657.98 2353.97 2657.72 2354.17C2657.69 2354.12 2657.65 2354.07 2657.6 2354C2657.55 2353.93 2657.5 2353.86 2657.45 2353.79C2657.4 2353.72 2657.35 2353.66 2657.31 2353.61C2657.54 2353.44 2657.76 2353.24 2657.99 2353.02C2658.22 2352.79 2658.44 2352.56 2658.63 2352.31C2658.82 2352.06 2658.98 2351.83 2659.09 2351.6ZM2658.5 2355.59L2659.1 2354.98L2659.19 2355.01V2360.81H2658.5V2355.59ZM2659.39 2353.61L2660.06 2353.84C2659.87 2354.25 2659.64 2354.66 2659.37 2355.07C2659.1 2355.47 2658.82 2355.85 2658.52 2356.2C2658.22 2356.55 2657.92 2356.87 2657.61 2357.14C2657.58 2357.09 2657.54 2357.02 2657.49 2356.94C2657.44 2356.85 2657.38 2356.77 2657.32 2356.69C2657.26 2356.6 2657.21 2356.54 2657.16 2356.49C2657.59 2356.14 2658.01 2355.71 2658.41 2355.2C2658.81 2354.69 2659.14 2354.16 2659.39 2353.61ZM2660.11 2364.87H2666.47V2365.5H2660.11V2364.87ZM2662.84 2365.15L2663.69 2365.23C2663.61 2365.48 2663.52 2365.74 2663.43 2365.99C2663.34 2366.24 2663.26 2366.46 2663.18 2366.65L2662.56 2366.52C2662.61 2366.33 2662.67 2366.1 2662.72 2365.84C2662.78 2365.57 2662.82 2365.34 2662.84 2365.15ZM2664.58 2363.6L2665.35 2363.78C2665.21 2364.01 2665.07 2364.25 2664.92 2364.48C2664.77 2364.71 2664.63 2364.9 2664.5 2365.07L2663.88 2364.9C2663.96 2364.77 2664.04 2364.63 2664.13 2364.48C2664.22 2364.33 2664.3 2364.17 2664.38 2364.02C2664.47 2363.86 2664.53 2363.72 2664.58 2363.6ZM2661.17 2363.85L2661.76 2363.62C2661.92 2363.79 2662.07 2363.98 2662.21 2364.19C2662.35 2364.4 2662.45 2364.59 2662.5 2364.75L2661.88 2365.02C2661.83 2364.86 2661.73 2364.67 2661.6 2364.45C2661.47 2364.22 2661.32 2364.02 2661.17 2363.85ZM2659.62 2367.55V2371.09H2658.89V2368.25H2657.49V2367.55H2659.62ZM2659.62 2370.76C2659.86 2371.13 2660.19 2371.4 2660.62 2371.58C2661.05 2371.76 2661.55 2371.86 2662.13 2371.88C2662.4 2371.89 2662.73 2371.9 2663.12 2371.91C2663.51 2371.91 2663.92 2371.91 2664.35 2371.9C2664.78 2371.89 2665.2 2371.88 2665.6 2371.87C2666 2371.86 2666.35 2371.84 2666.65 2371.82C2666.62 2371.87 2666.58 2371.95 2666.55 2372.04C2666.52 2372.13 2666.49 2372.23 2666.46 2372.32C2666.43 2372.42 2666.41 2372.51 2666.4 2372.58C2666.13 2372.59 2665.8 2372.6 2665.43 2372.61C2665.06 2372.62 2664.67 2372.62 2664.27 2372.62C2663.87 2372.63 2663.48 2372.63 2663.1 2372.62C2662.73 2372.62 2662.4 2372.62 2662.13 2372.61C2661.48 2372.58 2660.92 2372.48 2660.45 2372.29C2659.99 2372.1 2659.6 2371.81 2659.28 2371.41C2659.04 2371.62 2658.79 2371.84 2658.54 2372.05C2658.29 2372.27 2658.02 2372.49 2657.75 2372.72L2657.36 2371.95C2657.6 2371.79 2657.86 2371.61 2658.13 2371.4C2658.41 2371.19 2658.68 2370.97 2658.94 2370.76H2659.62ZM2657.6 2364.29L2658.15 2363.84C2658.37 2363.98 2658.59 2364.14 2658.82 2364.33C2659.05 2364.51 2659.25 2364.69 2659.44 2364.88C2659.63 2365.07 2659.79 2365.24 2659.91 2365.4L2659.31 2365.9C2659.21 2365.74 2659.06 2365.56 2658.87 2365.37C2658.68 2365.18 2658.48 2364.99 2658.25 2364.8C2658.03 2364.61 2657.81 2364.44 2657.6 2364.29ZM2661.62 2368.25V2369.08H2664.95V2368.25H2661.62ZM2661.62 2369.63V2370.47H2664.95V2369.63H2661.62ZM2661.62 2366.88V2367.7H2664.95V2366.88H2661.62ZM2660.91 2366.3H2665.69V2371.06H2660.91V2366.3Z" fill="black"/>
<path d="M2489.64 2286.14H2492.59V2286.89H2489.64V2286.14ZM2494.65 2283.79H2495.43V2291.21C2495.43 2291.48 2495.46 2291.65 2495.52 2291.73C2495.59 2291.8 2495.73 2291.84 2495.95 2291.84C2496 2291.84 2496.1 2291.84 2496.23 2291.84C2496.36 2291.84 2496.51 2291.84 2496.67 2291.84C2496.83 2291.84 2496.98 2291.84 2497.11 2291.84C2497.25 2291.84 2497.35 2291.84 2497.42 2291.84C2497.58 2291.84 2497.7 2291.78 2497.77 2291.66C2497.85 2291.54 2497.91 2291.33 2497.94 2291.03C2497.98 2290.72 2498.01 2290.29 2498.03 2289.74C2498.1 2289.79 2498.17 2289.84 2498.25 2289.89C2498.34 2289.94 2498.42 2289.98 2498.51 2290.02C2498.6 2290.05 2498.67 2290.08 2498.74 2290.1C2498.71 2290.71 2498.66 2291.19 2498.59 2291.56C2498.52 2291.92 2498.39 2292.18 2498.22 2292.33C2498.05 2292.49 2497.81 2292.57 2497.48 2292.57C2497.43 2292.57 2497.32 2292.57 2497.17 2292.57C2497.02 2292.57 2496.85 2292.57 2496.66 2292.57C2496.48 2292.57 2496.31 2292.57 2496.16 2292.57C2496.01 2292.57 2495.92 2292.57 2495.87 2292.57C2495.56 2292.57 2495.31 2292.53 2495.13 2292.45C2494.96 2292.37 2494.83 2292.23 2494.76 2292.03C2494.69 2291.83 2494.65 2291.55 2494.65 2291.2V2283.79ZM2492.22 2283.78H2492.99V2292.71H2492.22V2283.78ZM2497.91 2285.32L2498.47 2285.98C2498.16 2286.21 2497.82 2286.45 2497.45 2286.7C2497.08 2286.94 2496.69 2287.18 2496.29 2287.41C2495.9 2287.64 2495.51 2287.85 2495.13 2288.06C2495.1 2287.97 2495.06 2287.87 2494.99 2287.76C2494.93 2287.65 2494.87 2287.55 2494.82 2287.48C2495.19 2287.27 2495.57 2287.05 2495.94 2286.8C2496.32 2286.55 2496.68 2286.3 2497.02 2286.05C2497.37 2285.8 2497.66 2285.55 2497.91 2285.32ZM2489.34 2290.78C2489.61 2290.69 2489.92 2290.58 2490.27 2290.45C2490.62 2290.32 2491 2290.17 2491.39 2290.02C2491.79 2289.87 2492.19 2289.71 2492.58 2289.56L2492.72 2290.23C2492.2 2290.46 2491.67 2290.68 2491.13 2290.91C2490.6 2291.14 2490.11 2291.34 2489.68 2291.52L2489.34 2290.78ZM2499.62 2286.47H2508.42V2287.24H2499.62V2286.47ZM2504.49 2286.78C2504.72 2287.59 2505.01 2288.34 2505.38 2289.04C2505.75 2289.73 2506.21 2290.34 2506.74 2290.86C2507.28 2291.38 2507.89 2291.79 2508.58 2292.08C2508.52 2292.13 2508.45 2292.2 2508.38 2292.28C2508.31 2292.37 2508.25 2292.45 2508.18 2292.54C2508.11 2292.63 2508.06 2292.71 2508.02 2292.78C2507.3 2292.43 2506.66 2291.98 2506.11 2291.41C2505.56 2290.84 2505.1 2290.18 2504.71 2289.43C2504.32 2288.68 2504 2287.85 2503.75 2286.96L2504.49 2286.78ZM2503.61 2283.61H2504.42C2504.42 2284.04 2504.41 2284.53 2504.38 2285.06C2504.36 2285.59 2504.31 2286.14 2504.23 2286.71C2504.15 2287.28 2504.02 2287.85 2503.83 2288.43C2503.65 2289 2503.4 2289.56 2503.07 2290.1C2502.75 2290.63 2502.34 2291.13 2501.84 2291.59C2501.34 2292.05 2500.73 2292.45 2500 2292.78C2499.94 2292.68 2499.85 2292.57 2499.74 2292.45C2499.63 2292.34 2499.53 2292.24 2499.43 2292.16C2500.14 2291.85 2500.73 2291.49 2501.21 2291.06C2501.7 2290.63 2502.09 2290.17 2502.4 2289.66C2502.71 2289.15 2502.94 2288.63 2503.11 2288.09C2503.28 2287.55 2503.39 2287.01 2503.46 2286.48C2503.53 2285.94 2503.57 2285.43 2503.58 2284.94C2503.6 2284.45 2503.61 2284.01 2503.61 2283.61ZM2511.59 2287.55V2291.09H2510.87V2288.25H2509.42V2287.55H2511.59ZM2511.59 2290.78C2511.83 2291.15 2512.16 2291.43 2512.59 2291.61C2513.02 2291.78 2513.52 2291.88 2514.11 2291.91C2514.39 2291.92 2514.73 2291.92 2515.12 2291.93C2515.52 2291.93 2515.94 2291.93 2516.38 2291.93C2516.82 2291.92 2517.24 2291.91 2517.65 2291.9C2518.06 2291.89 2518.42 2291.87 2518.73 2291.85C2518.7 2291.9 2518.67 2291.97 2518.64 2292.06C2518.61 2292.15 2518.57 2292.24 2518.54 2292.33C2518.51 2292.42 2518.49 2292.51 2518.48 2292.59C2518.2 2292.6 2517.87 2292.6 2517.49 2292.61C2517.12 2292.62 2516.72 2292.63 2516.3 2292.63C2515.89 2292.64 2515.49 2292.64 2515.1 2292.63C2514.72 2292.62 2514.39 2292.62 2514.11 2292.61C2513.46 2292.58 2512.91 2292.48 2512.44 2292.29C2511.97 2292.1 2511.58 2291.81 2511.27 2291.41C2511.02 2291.63 2510.76 2291.85 2510.49 2292.06C2510.22 2292.28 2509.95 2292.5 2509.66 2292.72L2509.29 2291.98C2509.54 2291.82 2509.81 2291.64 2510.1 2291.43C2510.39 2291.22 2510.67 2291 2510.94 2290.78H2511.59ZM2509.58 2284.29L2510.11 2283.83C2510.32 2283.98 2510.54 2284.15 2510.76 2284.34C2510.99 2284.53 2511.19 2284.72 2511.38 2284.91C2511.57 2285.1 2511.71 2285.28 2511.82 2285.45L2511.25 2285.97C2511.15 2285.8 2511.01 2285.61 2510.82 2285.42C2510.64 2285.22 2510.44 2285.02 2510.23 2284.83C2510.02 2284.63 2509.8 2284.45 2509.58 2284.29ZM2513.59 2285.28L2514.06 2284.85C2514.38 2284.96 2514.72 2285.1 2515.07 2285.25C2515.43 2285.4 2515.77 2285.55 2516.1 2285.7C2516.43 2285.85 2516.71 2286 2516.93 2286.13L2516.43 2286.61C2516.22 2286.48 2515.96 2286.33 2515.63 2286.17C2515.31 2286.01 2514.97 2285.85 2514.61 2285.7C2514.25 2285.54 2513.91 2285.4 2513.59 2285.28ZM2512.63 2286.11H2517.8V2286.69H2513.34V2291.29H2512.63V2286.11ZM2517.45 2286.11H2518.17V2290.54C2518.17 2290.73 2518.15 2290.87 2518.1 2290.97C2518.05 2291.06 2517.96 2291.14 2517.83 2291.2C2517.7 2291.25 2517.52 2291.29 2517.3 2291.3C2517.09 2291.31 2516.81 2291.31 2516.47 2291.31C2516.46 2291.22 2516.43 2291.11 2516.39 2291C2516.35 2290.88 2516.31 2290.78 2516.26 2290.7C2516.5 2290.71 2516.71 2290.71 2516.9 2290.71C2517.09 2290.71 2517.22 2290.71 2517.28 2290.71C2517.35 2290.7 2517.39 2290.69 2517.41 2290.66C2517.44 2290.63 2517.45 2290.59 2517.45 2290.54V2286.11ZM2512.64 2284.01H2517.63V2284.61H2512.64V2284.01ZM2513.02 2287.57H2517.73V2288.13H2513.02V2287.57ZM2513.02 2289.04H2517.73V2289.63H2513.02V2289.04ZM2515.03 2286.35H2515.71V2291.25H2515.03V2286.35ZM2517.38 2284.01H2517.55L2517.7 2283.97L2518.17 2284.34C2517.94 2284.55 2517.69 2284.75 2517.4 2284.96C2517.11 2285.16 2516.81 2285.35 2516.5 2285.52C2516.19 2285.69 2515.88 2285.84 2515.57 2285.97C2515.52 2285.9 2515.46 2285.83 2515.38 2285.74C2515.3 2285.65 2515.23 2285.58 2515.17 2285.53C2515.45 2285.42 2515.73 2285.28 2516.01 2285.13C2516.29 2284.98 2516.55 2284.82 2516.79 2284.65C2517.03 2284.48 2517.23 2284.31 2517.38 2284.15V2284.01Z" fill="black"/>
<path d="M2493.18 2394.22L2494.06 2394.45C2493.9 2394.82 2493.73 2395.22 2493.54 2395.63C2493.36 2396.04 2493.17 2396.45 2492.98 2396.86C2492.79 2397.27 2492.59 2397.66 2492.39 2398.03C2492.19 2398.4 2492 2398.73 2491.82 2399.04L2491.12 2398.81C2491.3 2398.5 2491.49 2398.16 2491.68 2397.78C2491.87 2397.4 2492.06 2397 2492.24 2396.59C2492.43 2396.18 2492.6 2395.77 2492.76 2395.36C2492.92 2394.95 2493.06 2394.57 2493.18 2394.22ZM2489.9 2398.58C2490.35 2398.57 2490.87 2398.55 2491.44 2398.53C2492.02 2398.51 2492.63 2398.49 2493.28 2398.46C2493.93 2398.43 2494.6 2398.4 2495.28 2398.37C2495.97 2398.34 2496.65 2398.31 2497.32 2398.28L2497.3 2398.99C2496.43 2399.04 2495.55 2399.08 2494.66 2399.13C2493.77 2399.18 2492.93 2399.23 2492.13 2399.27C2491.34 2399.31 2490.63 2399.34 2490 2399.37L2489.9 2398.58ZM2495.1 2396.42L2495.81 2396.08C2496.12 2396.43 2496.43 2396.81 2496.74 2397.22C2497.05 2397.62 2497.34 2398.01 2497.61 2398.4C2497.88 2398.79 2498.09 2399.13 2498.25 2399.44L2497.5 2399.85C2497.34 2399.54 2497.13 2399.18 2496.86 2398.79C2496.6 2398.39 2496.31 2397.98 2496 2397.57C2495.69 2397.15 2495.39 2396.77 2495.1 2396.42ZM2492.17 2390.89L2493 2391.12C2492.78 2391.66 2492.52 2392.18 2492.22 2392.69C2491.92 2393.2 2491.6 2393.67 2491.26 2394.11C2490.92 2394.54 2490.57 2394.92 2490.21 2395.25C2490.16 2395.2 2490.1 2395.14 2490.01 2395.07C2489.92 2395 2489.83 2394.94 2489.74 2394.87C2489.65 2394.8 2489.57 2394.75 2489.5 2394.71C2489.87 2394.41 2490.21 2394.06 2490.54 2393.66C2490.87 2393.25 2491.18 2392.81 2491.46 2392.34C2491.74 2391.87 2491.98 2391.38 2492.17 2390.89ZM2495.74 2390.89C2495.91 2391.22 2496.1 2391.55 2496.33 2391.9C2496.56 2392.25 2496.81 2392.59 2497.07 2392.92C2497.33 2393.25 2497.59 2393.57 2497.85 2393.86C2498.11 2394.15 2498.36 2394.4 2498.59 2394.61C2498.52 2394.66 2498.45 2394.73 2498.37 2394.8C2498.29 2394.87 2498.21 2394.95 2498.14 2395.03C2498.07 2395.11 2498 2395.18 2497.95 2395.25C2497.72 2395.01 2497.48 2394.73 2497.21 2394.41C2496.95 2394.09 2496.69 2393.75 2496.42 2393.39C2496.16 2393.03 2495.91 2392.66 2495.66 2392.29C2495.41 2391.91 2495.2 2391.54 2495.01 2391.19L2495.74 2390.89ZM2501.03 2393.58H2506.94V2394.06H2501.03V2393.58ZM2501.61 2392.48H2506.41V2392.96H2501.61V2392.48ZM2503.62 2391.93H2504.31V2393.86H2503.62V2391.93ZM2503.49 2396.27H2504.17V2398.41H2503.49V2396.27ZM2504.27 2396.08C2504.46 2396.33 2504.71 2396.58 2505.02 2396.81C2505.33 2397.04 2505.67 2397.24 2506.04 2397.42C2506.41 2397.59 2506.79 2397.73 2507.16 2397.83C2507.09 2397.89 2507.02 2397.97 2506.94 2398.07C2506.86 2398.16 2506.8 2398.25 2506.75 2398.33C2506.37 2398.2 2505.99 2398.04 2505.61 2397.83C2505.23 2397.62 2504.88 2397.39 2504.56 2397.12C2504.24 2396.85 2503.97 2396.57 2503.76 2396.28L2504.27 2396.08ZM2503.94 2395.81L2504.54 2396.02C2504.29 2396.31 2503.98 2396.58 2503.61 2396.84C2503.25 2397.09 2502.87 2397.32 2502.47 2397.53C2502.07 2397.74 2501.67 2397.92 2501.28 2398.07C2501.25 2398.02 2501.21 2397.97 2501.16 2397.91C2501.11 2397.84 2501.05 2397.78 2501 2397.72C2500.95 2397.65 2500.9 2397.6 2500.85 2397.57C2501.24 2397.44 2501.63 2397.28 2502.02 2397.11C2502.41 2396.93 2502.78 2396.73 2503.11 2396.51C2503.44 2396.29 2503.72 2396.06 2503.94 2395.81ZM2506.35 2396.03L2506.84 2396.32C2506.61 2396.51 2506.37 2396.69 2506.1 2396.86C2505.83 2397.03 2505.59 2397.18 2505.36 2397.3L2504.96 2397.03C2505.11 2396.94 2505.27 2396.83 2505.44 2396.72C2505.61 2396.6 2505.78 2396.48 2505.94 2396.36C2506.1 2396.23 2506.24 2396.12 2506.35 2396.03ZM2502.31 2394.97V2395.77H2505.68V2394.97H2502.31ZM2501.67 2394.52H2506.35V2396.22H2501.67V2394.52ZM2499.82 2391.04H2508.18V2399.8H2507.44V2391.72H2500.53V2399.8H2499.82V2391.04ZM2500.26 2398.7H2507.85V2399.38H2500.26V2398.7ZM2511.59 2394.55V2398.09H2510.87V2395.25H2509.42V2394.55H2511.59ZM2511.59 2397.78C2511.83 2398.15 2512.16 2398.43 2512.59 2398.61C2513.02 2398.78 2513.52 2398.88 2514.11 2398.91C2514.39 2398.92 2514.73 2398.92 2515.12 2398.93C2515.52 2398.93 2515.94 2398.93 2516.38 2398.93C2516.82 2398.92 2517.24 2398.91 2517.65 2398.9C2518.06 2398.89 2518.42 2398.87 2518.73 2398.85C2518.7 2398.9 2518.67 2398.97 2518.64 2399.06C2518.61 2399.15 2518.57 2399.24 2518.54 2399.33C2518.51 2399.42 2518.49 2399.51 2518.48 2399.59C2518.2 2399.6 2517.87 2399.6 2517.49 2399.61C2517.12 2399.62 2516.72 2399.63 2516.3 2399.63C2515.89 2399.64 2515.49 2399.64 2515.1 2399.63C2514.72 2399.62 2514.39 2399.62 2514.11 2399.61C2513.46 2399.58 2512.91 2399.48 2512.44 2399.29C2511.97 2399.1 2511.58 2398.81 2511.27 2398.41C2511.02 2398.63 2510.76 2398.85 2510.49 2399.06C2510.22 2399.28 2509.95 2399.5 2509.66 2399.72L2509.29 2398.98C2509.54 2398.82 2509.81 2398.64 2510.1 2398.43C2510.39 2398.22 2510.67 2398 2510.94 2397.78H2511.59ZM2509.58 2391.29L2510.11 2390.83C2510.32 2390.98 2510.54 2391.15 2510.76 2391.34C2510.99 2391.53 2511.19 2391.72 2511.38 2391.91C2511.57 2392.1 2511.71 2392.28 2511.82 2392.45L2511.25 2392.97C2511.15 2392.8 2511.01 2392.61 2510.82 2392.42C2510.64 2392.22 2510.44 2392.02 2510.23 2391.83C2510.02 2391.63 2509.8 2391.45 2509.58 2391.29ZM2513.59 2392.28L2514.06 2391.85C2514.38 2391.96 2514.72 2392.1 2515.07 2392.25C2515.43 2392.4 2515.77 2392.55 2516.1 2392.7C2516.43 2392.85 2516.71 2393 2516.93 2393.13L2516.43 2393.61C2516.22 2393.48 2515.96 2393.33 2515.63 2393.17C2515.31 2393.01 2514.97 2392.85 2514.61 2392.7C2514.25 2392.54 2513.91 2392.4 2513.59 2392.28ZM2512.63 2393.11H2517.8V2393.69H2513.34V2398.29H2512.63V2393.11ZM2517.45 2393.11H2518.17V2397.54C2518.17 2397.73 2518.15 2397.87 2518.1 2397.97C2518.05 2398.06 2517.96 2398.14 2517.83 2398.2C2517.7 2398.25 2517.52 2398.29 2517.3 2398.3C2517.09 2398.31 2516.81 2398.31 2516.47 2398.31C2516.46 2398.22 2516.43 2398.11 2516.39 2398C2516.35 2397.88 2516.31 2397.78 2516.26 2397.7C2516.5 2397.71 2516.71 2397.71 2516.9 2397.71C2517.09 2397.71 2517.22 2397.71 2517.28 2397.71C2517.35 2397.7 2517.39 2397.69 2517.41 2397.66C2517.44 2397.63 2517.45 2397.59 2517.45 2397.54V2393.11ZM2512.64 2391.01H2517.63V2391.61H2512.64V2391.01ZM2513.02 2394.57H2517.73V2395.13H2513.02V2394.57ZM2513.02 2396.04H2517.73V2396.63H2513.02V2396.04ZM2515.03 2393.35H2515.71V2398.25H2515.03V2393.35ZM2517.38 2391.01H2517.55L2517.7 2390.97L2518.17 2391.34C2517.94 2391.55 2517.69 2391.75 2517.4 2391.96C2517.11 2392.16 2516.81 2392.35 2516.5 2392.52C2516.19 2392.69 2515.88 2392.84 2515.57 2392.97C2515.52 2392.9 2515.46 2392.83 2515.38 2392.74C2515.3 2392.65 2515.23 2392.58 2515.17 2392.53C2515.45 2392.42 2515.73 2392.28 2516.01 2392.13C2516.29 2391.98 2516.55 2391.82 2516.79 2391.65C2517.03 2391.48 2517.23 2391.31 2517.38 2391.15V2391.01Z" fill="black"/>
<path d="M2493.57 2518.55H2494.37V2520.43H2493.57V2518.55ZM2493.58 2520.66H2494.36V2527.83H2493.58V2520.66ZM2489.51 2519.99H2498.51V2520.72H2489.51V2519.99ZM2490.53 2522.08H2497.1V2522.81H2491.28V2526.56H2490.53V2522.08ZM2496.81 2522.08H2497.58V2525.61C2497.58 2525.82 2497.55 2525.99 2497.49 2526.11C2497.44 2526.23 2497.32 2526.32 2497.15 2526.39C2496.98 2526.45 2496.75 2526.49 2496.46 2526.5C2496.17 2526.51 2495.82 2526.52 2495.39 2526.52C2495.38 2526.41 2495.34 2526.28 2495.28 2526.15C2495.23 2526.01 2495.18 2525.89 2495.13 2525.78C2495.36 2525.79 2495.57 2525.79 2495.77 2525.8C2495.97 2525.8 2496.14 2525.8 2496.28 2525.8C2496.43 2525.8 2496.53 2525.8 2496.59 2525.8C2496.68 2525.79 2496.73 2525.78 2496.76 2525.75C2496.79 2525.72 2496.81 2525.67 2496.81 2525.6V2522.08ZM2501.49 2522.12H2508.44V2522.83H2501.49V2522.12ZM2504.73 2522.39H2505.5V2526.88C2505.5 2527.11 2505.46 2527.29 2505.39 2527.41C2505.32 2527.54 2505.2 2527.63 2505.01 2527.69C2504.84 2527.75 2504.59 2527.78 2504.28 2527.79C2503.97 2527.8 2503.58 2527.81 2503.11 2527.81C2503.09 2527.71 2503.05 2527.59 2503 2527.44C2502.95 2527.3 2502.89 2527.18 2502.83 2527.08C2503.08 2527.09 2503.32 2527.09 2503.54 2527.09C2503.77 2527.1 2503.96 2527.1 2504.13 2527.09C2504.3 2527.09 2504.41 2527.09 2504.48 2527.09C2504.57 2527.08 2504.64 2527.06 2504.67 2527.03C2504.71 2527 2504.73 2526.95 2504.73 2526.87V2522.39ZM2500.57 2519.84H2508.52V2520.56H2500.57V2519.84ZM2500.16 2519.84H2500.91V2522.54C2500.91 2522.92 2500.9 2523.34 2500.87 2523.79C2500.85 2524.24 2500.81 2524.7 2500.74 2525.17C2500.67 2525.64 2500.57 2526.1 2500.44 2526.55C2500.31 2527 2500.14 2527.41 2499.93 2527.78C2499.89 2527.73 2499.83 2527.68 2499.75 2527.63C2499.67 2527.58 2499.59 2527.52 2499.5 2527.47C2499.42 2527.42 2499.35 2527.39 2499.28 2527.36C2499.49 2527.01 2499.65 2526.63 2499.76 2526.22C2499.88 2525.81 2499.97 2525.39 2500.02 2524.96C2500.08 2524.53 2500.12 2524.1 2500.13 2523.69C2500.15 2523.28 2500.16 2522.89 2500.16 2522.54V2519.84ZM2503.9 2518.6H2504.67V2520.23H2503.9V2518.6ZM2511.59 2522.55V2526.09H2510.87V2523.25H2509.42V2522.55H2511.59ZM2511.59 2525.78C2511.83 2526.15 2512.16 2526.43 2512.59 2526.61C2513.02 2526.78 2513.52 2526.88 2514.11 2526.91C2514.39 2526.92 2514.73 2526.92 2515.12 2526.93C2515.52 2526.93 2515.94 2526.93 2516.38 2526.93C2516.82 2526.92 2517.24 2526.91 2517.65 2526.9C2518.06 2526.89 2518.42 2526.87 2518.73 2526.85C2518.7 2526.9 2518.67 2526.97 2518.64 2527.06C2518.61 2527.15 2518.57 2527.24 2518.54 2527.33C2518.51 2527.42 2518.49 2527.51 2518.48 2527.59C2518.2 2527.6 2517.87 2527.6 2517.49 2527.61C2517.12 2527.62 2516.72 2527.63 2516.3 2527.63C2515.89 2527.64 2515.49 2527.64 2515.1 2527.63C2514.72 2527.62 2514.39 2527.62 2514.11 2527.61C2513.46 2527.58 2512.91 2527.48 2512.44 2527.29C2511.97 2527.1 2511.58 2526.81 2511.27 2526.41C2511.02 2526.63 2510.76 2526.85 2510.49 2527.06C2510.22 2527.28 2509.95 2527.5 2509.66 2527.72L2509.29 2526.98C2509.54 2526.82 2509.81 2526.64 2510.1 2526.43C2510.39 2526.22 2510.67 2526 2510.94 2525.78H2511.59ZM2509.58 2519.29L2510.11 2518.83C2510.32 2518.98 2510.54 2519.15 2510.76 2519.34C2510.99 2519.53 2511.19 2519.72 2511.38 2519.91C2511.57 2520.1 2511.71 2520.28 2511.82 2520.45L2511.25 2520.97C2511.15 2520.8 2511.01 2520.61 2510.82 2520.42C2510.64 2520.22 2510.44 2520.02 2510.23 2519.83C2510.02 2519.63 2509.8 2519.45 2509.58 2519.29ZM2513.59 2520.28L2514.06 2519.85C2514.38 2519.96 2514.72 2520.1 2515.07 2520.25C2515.43 2520.4 2515.77 2520.55 2516.1 2520.7C2516.43 2520.85 2516.71 2521 2516.93 2521.13L2516.43 2521.61C2516.22 2521.48 2515.96 2521.33 2515.63 2521.17C2515.31 2521.01 2514.97 2520.85 2514.61 2520.7C2514.25 2520.54 2513.91 2520.4 2513.59 2520.28ZM2512.63 2521.11H2517.8V2521.69H2513.34V2526.29H2512.63V2521.11ZM2517.45 2521.11H2518.17V2525.54C2518.17 2525.73 2518.15 2525.87 2518.1 2525.97C2518.05 2526.06 2517.96 2526.14 2517.83 2526.2C2517.7 2526.25 2517.52 2526.29 2517.3 2526.3C2517.09 2526.31 2516.81 2526.31 2516.47 2526.31C2516.46 2526.22 2516.43 2526.11 2516.39 2526C2516.35 2525.88 2516.31 2525.78 2516.26 2525.7C2516.5 2525.71 2516.71 2525.71 2516.9 2525.71C2517.09 2525.71 2517.22 2525.71 2517.28 2525.71C2517.35 2525.7 2517.39 2525.69 2517.41 2525.66C2517.44 2525.63 2517.45 2525.59 2517.45 2525.54V2521.11ZM2512.64 2519.01H2517.63V2519.61H2512.64V2519.01ZM2513.02 2522.57H2517.73V2523.13H2513.02V2522.57ZM2513.02 2524.04H2517.73V2524.63H2513.02V2524.04ZM2515.03 2521.35H2515.71V2526.25H2515.03V2521.35ZM2517.38 2519.01H2517.55L2517.7 2518.97L2518.17 2519.34C2517.94 2519.55 2517.69 2519.75 2517.4 2519.96C2517.11 2520.16 2516.81 2520.35 2516.5 2520.52C2516.19 2520.69 2515.88 2520.84 2515.57 2520.97C2515.52 2520.9 2515.46 2520.83 2515.38 2520.74C2515.3 2520.65 2515.23 2520.58 2515.17 2520.53C2515.45 2520.42 2515.73 2520.28 2516.01 2520.13C2516.29 2519.98 2516.55 2519.82 2516.79 2519.65C2517.03 2519.48 2517.23 2519.31 2517.38 2519.15V2519.01Z" fill="black"/>
<path d="M2891.25 2325.63H2892.04C2892.04 2326.33 2892.03 2327.04 2892 2327.76C2891.97 2328.47 2891.9 2329.17 2891.79 2329.86C2891.68 2330.54 2891.49 2331.19 2891.23 2331.81C2890.97 2332.42 2890.61 2332.99 2890.15 2333.5C2889.69 2334.01 2889.09 2334.45 2888.36 2334.82C2888.3 2334.73 2888.22 2334.62 2888.11 2334.51C2888 2334.4 2887.9 2334.3 2887.8 2334.23C2888.5 2333.9 2889.07 2333.49 2889.51 2333.02C2889.95 2332.54 2890.29 2332.01 2890.53 2331.43C2890.77 2330.85 2890.94 2330.24 2891.04 2329.6C2891.14 2328.96 2891.2 2328.3 2891.22 2327.63C2891.24 2326.96 2891.25 2326.29 2891.25 2325.63ZM2888.35 2327.75H2894.69V2328.49H2888.35V2327.75ZM2894.27 2327.75H2895.04V2333.47C2895.04 2333.66 2895.06 2333.78 2895.1 2333.83C2895.14 2333.88 2895.23 2333.91 2895.36 2333.91C2895.39 2333.91 2895.45 2333.91 2895.53 2333.91C2895.61 2333.91 2895.7 2333.91 2895.79 2333.91C2895.88 2333.91 2895.97 2333.91 2896.05 2333.91C2896.14 2333.91 2896.2 2333.91 2896.24 2333.91C2896.34 2333.91 2896.41 2333.86 2896.46 2333.77C2896.51 2333.67 2896.55 2333.49 2896.57 2333.23C2896.59 2332.97 2896.6 2332.59 2896.61 2332.09C2896.68 2332.14 2896.75 2332.18 2896.83 2332.23C2896.92 2332.28 2897 2332.32 2897.09 2332.36C2897.18 2332.39 2897.25 2332.42 2897.32 2332.44C2897.3 2333 2897.26 2333.44 2897.2 2333.76C2897.14 2334.08 2897.04 2334.31 2896.9 2334.44C2896.77 2334.58 2896.57 2334.65 2896.31 2334.65C2896.28 2334.65 2896.21 2334.65 2896.1 2334.65C2896 2334.65 2895.89 2334.65 2895.77 2334.65C2895.66 2334.65 2895.55 2334.65 2895.45 2334.65C2895.35 2334.65 2895.28 2334.65 2895.25 2334.65C2895 2334.65 2894.81 2334.61 2894.66 2334.54C2894.52 2334.47 2894.42 2334.35 2894.36 2334.18C2894.3 2334.01 2894.27 2333.77 2894.27 2333.46V2327.75ZM2888.75 2330.07L2889.27 2329.55C2889.61 2329.74 2889.97 2329.96 2890.34 2330.19C2890.72 2330.42 2891.09 2330.66 2891.46 2330.91C2891.83 2331.16 2892.16 2331.4 2892.47 2331.65C2892.78 2331.89 2893.04 2332.12 2893.25 2332.33L2892.68 2332.94C2892.48 2332.72 2892.23 2332.49 2891.93 2332.24C2891.63 2331.99 2891.3 2331.74 2890.94 2331.48C2890.58 2331.22 2890.21 2330.97 2889.84 2330.73C2889.47 2330.49 2889.1 2330.27 2888.75 2330.07ZM2888.16 2338.55H2896.9V2339.26H2888.16V2338.55ZM2892.09 2337.61H2892.86V2346.8H2892.09V2337.61ZM2891.85 2343.33L2892.48 2343.61C2892.25 2343.92 2891.97 2344.23 2891.66 2344.53C2891.35 2344.83 2891.01 2345.11 2890.65 2345.38C2890.3 2345.64 2889.93 2345.88 2889.55 2346.09C2889.17 2346.3 2888.8 2346.49 2888.43 2346.64C2888.39 2346.58 2888.34 2346.51 2888.28 2346.43C2888.22 2346.35 2888.16 2346.27 2888.09 2346.19C2888.03 2346.12 2887.97 2346.06 2887.91 2346.01C2888.27 2345.88 2888.64 2345.73 2889.01 2345.54C2889.39 2345.35 2889.76 2345.13 2890.11 2344.9C2890.46 2344.66 2890.79 2344.41 2891.09 2344.14C2891.39 2343.87 2891.64 2343.6 2891.85 2343.33ZM2893.11 2343.34C2893.33 2343.62 2893.59 2343.89 2893.89 2344.16C2894.2 2344.42 2894.53 2344.67 2894.89 2344.91C2895.25 2345.14 2895.62 2345.36 2896 2345.55C2896.38 2345.74 2896.75 2345.89 2897.12 2346.01C2897.07 2346.06 2897.01 2346.13 2896.94 2346.2C2896.87 2346.28 2896.81 2346.36 2896.75 2346.44C2896.69 2346.52 2896.64 2346.59 2896.59 2346.66C2896.22 2346.51 2895.85 2346.33 2895.46 2346.11C2895.08 2345.9 2894.71 2345.66 2894.34 2345.39C2893.98 2345.12 2893.64 2344.84 2893.33 2344.54C2893.02 2344.24 2892.74 2343.93 2892.5 2343.62L2893.11 2343.34ZM2889.76 2342.21V2343.18H2895.32V2342.21H2889.76ZM2889.76 2340.7V2341.65H2895.32V2340.7H2889.76ZM2889.03 2340.1H2896.09V2343.78H2889.03V2340.1ZM2890.6 2350.86H2893.99V2351.51H2890.6V2350.86ZM2894.44 2350.19H2896.96V2350.86H2894.44V2350.19ZM2894.35 2352.87H2897.1V2353.55H2894.35V2352.87ZM2890.4 2352.85H2894.17V2353.52H2890.4V2352.85ZM2891.93 2349.6H2892.64V2353.24H2891.93V2349.6ZM2890.46 2354.96H2894.1V2355.62H2890.46V2354.96ZM2891.92 2353.73H2892.64V2357.4L2891.92 2357.54V2353.73ZM2890.18 2357.38C2890.53 2357.34 2890.94 2357.3 2891.39 2357.25C2891.84 2357.2 2892.32 2357.14 2892.83 2357.08C2893.34 2357.01 2893.84 2356.95 2894.35 2356.89L2894.37 2357.55C2893.64 2357.64 2892.91 2357.74 2892.18 2357.83C2891.46 2357.92 2890.82 2358.01 2890.27 2358.08L2890.18 2357.38ZM2895.42 2353.15H2896.16V2357.88C2896.16 2358.1 2896.13 2358.27 2896.08 2358.39C2896.03 2358.51 2895.93 2358.6 2895.78 2358.66C2895.63 2358.72 2895.44 2358.76 2895.19 2358.77C2894.94 2358.79 2894.64 2358.8 2894.28 2358.8C2894.27 2358.69 2894.24 2358.57 2894.19 2358.42C2894.15 2358.28 2894.1 2358.16 2894.05 2358.05C2894.33 2358.06 2894.58 2358.06 2894.79 2358.06C2895.01 2358.07 2895.16 2358.07 2895.23 2358.06C2895.31 2358.05 2895.36 2358.04 2895.38 2358.01C2895.41 2357.98 2895.42 2357.94 2895.42 2357.88V2353.15ZM2889.59 2349.6L2890.28 2349.85C2890.12 2350.12 2889.93 2350.4 2889.7 2350.69C2889.47 2350.97 2889.23 2351.24 2888.98 2351.49C2888.73 2351.74 2888.48 2351.97 2888.22 2352.17C2888.19 2352.12 2888.15 2352.07 2888.1 2352C2888.05 2351.93 2888 2351.86 2887.95 2351.79C2887.9 2351.72 2887.85 2351.66 2887.81 2351.61C2888.04 2351.44 2888.26 2351.24 2888.49 2351.02C2888.72 2350.79 2888.94 2350.56 2889.13 2350.31C2889.32 2350.06 2889.48 2349.83 2889.59 2349.6ZM2889 2353.59L2889.6 2352.98L2889.69 2353.01V2358.81H2889V2353.59ZM2889.89 2351.61L2890.56 2351.84C2890.37 2352.25 2890.14 2352.66 2889.87 2353.07C2889.6 2353.47 2889.32 2353.85 2889.02 2354.2C2888.72 2354.55 2888.42 2354.87 2888.11 2355.14C2888.08 2355.09 2888.04 2355.02 2887.99 2354.94C2887.94 2354.85 2887.88 2354.77 2887.82 2354.69C2887.76 2354.6 2887.71 2354.54 2887.66 2354.49C2888.09 2354.14 2888.51 2353.71 2888.91 2353.2C2889.31 2352.69 2889.64 2352.16 2889.89 2351.61ZM2890.61 2362.87H2896.97V2363.5H2890.61V2362.87ZM2893.34 2363.15L2894.19 2363.23C2894.11 2363.48 2894.02 2363.74 2893.93 2363.99C2893.84 2364.24 2893.76 2364.46 2893.68 2364.65L2893.06 2364.52C2893.11 2364.33 2893.17 2364.1 2893.22 2363.84C2893.28 2363.57 2893.32 2363.34 2893.34 2363.15ZM2895.08 2361.6L2895.85 2361.78C2895.71 2362.01 2895.57 2362.25 2895.42 2362.48C2895.27 2362.71 2895.13 2362.9 2895 2363.07L2894.38 2362.9C2894.46 2362.77 2894.54 2362.63 2894.63 2362.48C2894.72 2362.33 2894.8 2362.17 2894.88 2362.02C2894.97 2361.86 2895.03 2361.72 2895.08 2361.6ZM2891.67 2361.85L2892.26 2361.62C2892.42 2361.79 2892.57 2361.98 2892.71 2362.19C2892.85 2362.4 2892.95 2362.59 2893 2362.75L2892.38 2363.02C2892.33 2362.86 2892.23 2362.67 2892.1 2362.45C2891.97 2362.22 2891.82 2362.02 2891.67 2361.85ZM2890.12 2365.55V2369.09H2889.39V2366.25H2887.99V2365.55H2890.12ZM2890.12 2368.76C2890.36 2369.13 2890.69 2369.4 2891.12 2369.58C2891.55 2369.76 2892.05 2369.86 2892.63 2369.88C2892.9 2369.89 2893.23 2369.9 2893.62 2369.91C2894.01 2369.91 2894.42 2369.91 2894.85 2369.9C2895.28 2369.89 2895.7 2369.88 2896.1 2369.87C2896.5 2369.86 2896.85 2369.84 2897.15 2369.82C2897.12 2369.87 2897.08 2369.95 2897.05 2370.04C2897.02 2370.13 2896.99 2370.23 2896.96 2370.32C2896.93 2370.42 2896.91 2370.51 2896.9 2370.58C2896.63 2370.59 2896.3 2370.6 2895.93 2370.61C2895.56 2370.62 2895.17 2370.62 2894.77 2370.62C2894.37 2370.63 2893.98 2370.63 2893.6 2370.62C2893.23 2370.62 2892.9 2370.62 2892.63 2370.61C2891.98 2370.58 2891.42 2370.48 2890.95 2370.29C2890.49 2370.1 2890.1 2369.81 2889.78 2369.41C2889.54 2369.62 2889.29 2369.84 2889.04 2370.05C2888.79 2370.27 2888.52 2370.49 2888.25 2370.72L2887.86 2369.95C2888.1 2369.79 2888.36 2369.61 2888.63 2369.4C2888.91 2369.19 2889.18 2368.97 2889.44 2368.76H2890.12ZM2888.1 2362.29L2888.65 2361.84C2888.87 2361.98 2889.09 2362.14 2889.32 2362.33C2889.55 2362.51 2889.75 2362.69 2889.94 2362.88C2890.13 2363.07 2890.29 2363.24 2890.41 2363.4L2889.81 2363.9C2889.71 2363.74 2889.56 2363.56 2889.37 2363.37C2889.18 2363.18 2888.98 2362.99 2888.75 2362.8C2888.53 2362.61 2888.31 2362.44 2888.1 2362.29ZM2892.12 2366.25V2367.08H2895.45V2366.25H2892.12ZM2892.12 2367.63V2368.47H2895.45V2367.63H2892.12ZM2892.12 2364.88V2365.7H2895.45V2364.88H2892.12ZM2891.41 2364.3H2896.19V2369.06H2891.41V2364.3Z" fill="black"/>
<path d="M2485.65 2614.55H2494.34V2615.21H2485.65V2614.55ZM2489.56 2613.59H2490.33V2614.87H2489.56V2613.59ZM2486.1 2618.46H2493.53V2619.1H2486.83V2622.8H2486.1V2618.46ZM2493.22 2618.46H2493.97V2621.9C2493.97 2622.11 2493.94 2622.27 2493.88 2622.39C2493.83 2622.51 2493.72 2622.6 2493.56 2622.66C2493.4 2622.72 2493.18 2622.75 2492.9 2622.76C2492.63 2622.77 2492.28 2622.78 2491.86 2622.78C2491.85 2622.67 2491.82 2622.55 2491.77 2622.42C2491.72 2622.29 2491.67 2622.17 2491.62 2622.07C2491.95 2622.08 2492.24 2622.08 2492.49 2622.08C2492.75 2622.09 2492.92 2622.09 2493 2622.08C2493.09 2622.07 2493.14 2622.06 2493.17 2622.03C2493.2 2622 2493.22 2621.96 2493.22 2621.89V2618.46ZM2488.1 2619.75H2488.76V2622.38H2488.1V2619.75ZM2488.45 2619.75H2491.91V2621.87H2488.45V2621.32H2491.24V2620.3H2488.45V2619.75ZM2488.03 2616.32V2617.28H2491.95V2616.32H2488.03ZM2487.31 2615.77H2492.7V2617.84H2487.31V2615.77ZM2495.71 2615.31H2496.28V2621.65H2495.71V2615.31ZM2498.19 2615.31H2498.74V2621.32H2498.19V2615.31ZM2496.92 2613.8H2497.53V2620.47H2496.92V2613.8ZM2495.99 2620.08H2498.41V2620.71H2495.99V2620.08ZM2499.88 2618.68H2502.27V2621.04H2499.88V2620.48H2501.63V2619.24H2499.88V2618.68ZM2499.55 2618.68H2500.17V2621.61H2499.55V2618.68ZM2499.16 2614.49H2504.32V2615.11H2499.16V2614.49ZM2498.85 2617.3H2504.62V2617.93H2498.85V2617.3ZM2503.2 2617.75H2503.91V2621.94C2503.91 2622.15 2503.88 2622.31 2503.82 2622.42C2503.77 2622.53 2503.66 2622.62 2503.5 2622.68C2503.35 2622.73 2503.14 2622.77 2502.88 2622.78C2502.62 2622.79 2502.28 2622.8 2501.87 2622.8C2501.86 2622.7 2501.82 2622.58 2501.77 2622.45C2501.72 2622.32 2501.66 2622.21 2501.61 2622.11C2501.93 2622.12 2502.22 2622.12 2502.47 2622.12C2502.73 2622.13 2502.9 2622.13 2502.99 2622.13C2503.07 2622.12 2503.12 2622.11 2503.15 2622.08C2503.18 2622.05 2503.2 2622 2503.2 2621.93V2617.75ZM2501.46 2613.61H2502.16C2502.13 2614.14 2502.08 2614.6 2501.99 2614.99C2501.91 2615.38 2501.77 2615.73 2501.57 2616.02C2501.38 2616.31 2501.1 2616.55 2500.75 2616.75C2500.4 2616.94 2499.95 2617.1 2499.38 2617.23C2499.35 2617.15 2499.3 2617.06 2499.22 2616.95C2499.15 2616.84 2499.08 2616.75 2499.02 2616.68C2499.53 2616.57 2499.94 2616.44 2500.25 2616.28C2500.56 2616.12 2500.8 2615.92 2500.97 2615.68C2501.14 2615.43 2501.25 2615.14 2501.32 2614.81C2501.39 2614.47 2501.44 2614.07 2501.46 2613.61ZM2501.23 2615.75L2501.68 2615.29C2501.97 2615.43 2502.27 2615.59 2502.6 2615.77C2502.93 2615.94 2503.25 2616.12 2503.56 2616.29C2503.87 2616.46 2504.12 2616.62 2504.32 2616.75L2503.84 2617.27C2503.65 2617.14 2503.4 2616.98 2503.1 2616.8C2502.81 2616.62 2502.49 2616.44 2502.16 2616.25C2501.83 2616.06 2501.52 2615.9 2501.23 2615.75ZM2507.59 2617.55V2621.09H2506.87V2618.25H2505.42V2617.55H2507.59ZM2507.59 2620.78C2507.83 2621.15 2508.16 2621.43 2508.59 2621.61C2509.02 2621.78 2509.52 2621.88 2510.11 2621.91C2510.39 2621.92 2510.73 2621.92 2511.12 2621.93C2511.52 2621.93 2511.94 2621.93 2512.38 2621.93C2512.82 2621.92 2513.24 2621.91 2513.65 2621.9C2514.06 2621.89 2514.42 2621.87 2514.73 2621.85C2514.7 2621.9 2514.67 2621.97 2514.64 2622.06C2514.61 2622.15 2514.57 2622.24 2514.54 2622.33C2514.51 2622.42 2514.49 2622.51 2514.48 2622.59C2514.2 2622.6 2513.87 2622.6 2513.49 2622.61C2513.12 2622.62 2512.72 2622.63 2512.3 2622.63C2511.89 2622.64 2511.49 2622.64 2511.1 2622.63C2510.72 2622.62 2510.39 2622.62 2510.11 2622.61C2509.46 2622.58 2508.91 2622.48 2508.44 2622.29C2507.97 2622.1 2507.58 2621.81 2507.27 2621.41C2507.02 2621.63 2506.76 2621.85 2506.49 2622.06C2506.22 2622.28 2505.95 2622.5 2505.66 2622.72L2505.29 2621.98C2505.54 2621.82 2505.81 2621.64 2506.1 2621.43C2506.39 2621.22 2506.67 2621 2506.94 2620.78H2507.59ZM2505.58 2614.29L2506.11 2613.83C2506.32 2613.98 2506.54 2614.15 2506.76 2614.34C2506.99 2614.53 2507.19 2614.72 2507.38 2614.91C2507.57 2615.1 2507.71 2615.28 2507.82 2615.45L2507.25 2615.97C2507.15 2615.8 2507.01 2615.61 2506.82 2615.42C2506.64 2615.22 2506.44 2615.02 2506.23 2614.83C2506.02 2614.63 2505.8 2614.45 2505.58 2614.29ZM2509.59 2615.28L2510.06 2614.85C2510.38 2614.96 2510.72 2615.1 2511.07 2615.25C2511.43 2615.4 2511.77 2615.55 2512.1 2615.7C2512.43 2615.85 2512.71 2616 2512.93 2616.13L2512.43 2616.61C2512.22 2616.48 2511.96 2616.33 2511.63 2616.17C2511.31 2616.01 2510.97 2615.85 2510.61 2615.7C2510.25 2615.54 2509.91 2615.4 2509.59 2615.28ZM2508.63 2616.11H2513.8V2616.69H2509.34V2621.29H2508.63V2616.11ZM2513.45 2616.11H2514.17V2620.54C2514.17 2620.73 2514.15 2620.87 2514.1 2620.97C2514.05 2621.06 2513.96 2621.14 2513.83 2621.2C2513.7 2621.25 2513.52 2621.29 2513.3 2621.3C2513.09 2621.31 2512.81 2621.31 2512.47 2621.31C2512.46 2621.22 2512.43 2621.11 2512.39 2621C2512.35 2620.88 2512.31 2620.78 2512.26 2620.7C2512.5 2620.71 2512.71 2620.71 2512.9 2620.71C2513.09 2620.71 2513.22 2620.71 2513.28 2620.71C2513.35 2620.7 2513.39 2620.69 2513.41 2620.66C2513.44 2620.63 2513.45 2620.59 2513.45 2620.54V2616.11ZM2508.64 2614.01H2513.63V2614.61H2508.64V2614.01ZM2509.02 2617.57H2513.73V2618.13H2509.02V2617.57ZM2509.02 2619.04H2513.73V2619.63H2509.02V2619.04ZM2511.03 2616.35H2511.71V2621.25H2511.03V2616.35ZM2513.38 2614.01H2513.55L2513.7 2613.97L2514.17 2614.34C2513.94 2614.55 2513.69 2614.75 2513.4 2614.96C2513.11 2615.16 2512.81 2615.35 2512.5 2615.52C2512.19 2615.69 2511.88 2615.84 2511.57 2615.97C2511.52 2615.9 2511.46 2615.83 2511.38 2615.74C2511.3 2615.65 2511.23 2615.58 2511.17 2615.53C2511.45 2615.42 2511.73 2615.28 2512.01 2615.13C2512.29 2614.98 2512.55 2614.82 2512.79 2614.65C2513.03 2614.48 2513.23 2614.31 2513.38 2614.15V2614.01Z" fill="black"/>
<path d="M2489.77 2682.53L2490.48 2682.74V2689.9H2489.77V2682.53ZM2488.96 2689.9C2489.37 2689.83 2489.86 2689.74 2490.44 2689.63C2491.03 2689.52 2491.62 2689.41 2492.23 2689.29L2492.29 2689.95C2491.74 2690.06 2491.18 2690.18 2490.63 2690.29C2490.08 2690.4 2489.59 2690.51 2489.15 2690.6L2488.96 2689.9ZM2493.68 2681.78L2494.31 2682.34C2493.94 2682.48 2493.51 2682.61 2493.04 2682.74C2492.57 2682.87 2492.09 2682.98 2491.58 2683.08C2491.08 2683.18 2490.59 2683.27 2490.12 2683.35C2490.11 2683.26 2490.07 2683.16 2490.02 2683.05C2489.97 2682.93 2489.93 2682.83 2489.88 2682.75C2490.33 2682.67 2490.8 2682.58 2491.27 2682.48C2491.74 2682.38 2492.19 2682.27 2492.61 2682.15C2493.04 2682.03 2493.39 2681.91 2493.68 2681.78ZM2490.17 2685.39H2494.53V2686.07H2490.17V2685.39ZM2485.5 2684.27H2489.17V2684.94H2485.5V2684.27ZM2485.77 2682.26H2488.98V2682.93H2485.77V2682.26ZM2488.42 2685.65H2488.97V2689.24H2488.42V2685.65ZM2487.02 2684.57H2487.69V2690.8H2487.02V2684.57ZM2485.73 2685.66H2486.29V2686.85C2486.29 2687.2 2486.28 2687.55 2486.25 2687.92C2486.23 2688.29 2486.19 2688.65 2486.13 2689C2486.07 2689.35 2485.98 2689.69 2485.85 2690C2485.8 2689.94 2485.72 2689.87 2485.62 2689.8C2485.53 2689.73 2485.44 2689.67 2485.36 2689.64C2485.52 2689.22 2485.62 2688.76 2485.66 2688.26C2485.71 2687.76 2485.73 2687.29 2485.73 2686.84V2685.66ZM2491.97 2682.66H2492.68C2492.69 2683.65 2492.71 2684.59 2492.76 2685.46C2492.81 2686.33 2492.89 2687.09 2492.99 2687.76C2493.09 2688.42 2493.21 2688.94 2493.36 2689.32C2493.51 2689.69 2493.69 2689.89 2493.89 2689.9C2493.97 2689.9 2494.04 2689.78 2494.09 2689.54C2494.15 2689.29 2494.19 2688.95 2494.22 2688.52C2494.27 2688.57 2494.32 2688.62 2494.39 2688.67C2494.46 2688.72 2494.53 2688.76 2494.6 2688.81C2494.67 2688.85 2494.73 2688.88 2494.78 2688.9C2494.72 2689.39 2494.64 2689.78 2494.54 2690.06C2494.45 2690.34 2494.34 2690.53 2494.23 2690.63C2494.12 2690.74 2494 2690.79 2493.88 2690.79C2493.58 2690.78 2493.32 2690.65 2493.11 2690.38C2492.9 2690.11 2492.73 2689.74 2492.59 2689.26C2492.45 2688.77 2492.34 2688.2 2492.25 2687.53C2492.17 2686.86 2492.11 2686.11 2492.06 2685.29C2492.02 2684.47 2491.99 2683.59 2491.97 2682.66ZM2496.74 2682.15H2504.43V2682.85H2496.74V2682.15ZM2496.31 2682.15H2497.05V2685.05C2497.05 2685.46 2497.04 2685.92 2497.01 2686.41C2496.99 2686.9 2496.94 2687.4 2496.87 2687.92C2496.8 2688.43 2496.69 2688.94 2496.55 2689.43C2496.41 2689.92 2496.23 2690.37 2496 2690.78C2495.95 2690.73 2495.89 2690.69 2495.81 2690.64C2495.73 2690.59 2495.65 2690.55 2495.56 2690.5C2495.48 2690.45 2495.41 2690.42 2495.35 2690.4C2495.57 2690.01 2495.74 2689.58 2495.87 2689.13C2496 2688.67 2496.09 2688.2 2496.15 2687.73C2496.22 2687.25 2496.26 2686.78 2496.28 2686.33C2496.3 2685.87 2496.31 2685.44 2496.31 2685.05V2682.15ZM2498.69 2685.9V2686.83H2502.85V2685.9H2498.69ZM2498.69 2684.42V2685.33H2502.85V2684.42H2498.69ZM2497.95 2683.82H2503.61V2687.43H2497.95V2683.82ZM2500.39 2687.05H2501.12V2689.99C2501.12 2690.18 2501.09 2690.33 2501.04 2690.44C2500.99 2690.55 2500.89 2690.64 2500.74 2690.69C2500.59 2690.74 2500.39 2690.77 2500.13 2690.78C2499.88 2690.79 2499.56 2690.8 2499.17 2690.8C2499.16 2690.71 2499.13 2690.6 2499.08 2690.47C2499.03 2690.35 2498.99 2690.24 2498.94 2690.14C2499.24 2690.15 2499.5 2690.15 2499.73 2690.15C2499.96 2690.15 2500.12 2690.15 2500.2 2690.15C2500.28 2690.14 2500.33 2690.13 2500.35 2690.1C2500.38 2690.08 2500.39 2690.04 2500.39 2689.98V2687.05ZM2500.32 2682.7L2501.19 2682.79C2501.12 2683.05 2501.04 2683.31 2500.95 2683.56C2500.86 2683.81 2500.78 2684.03 2500.71 2684.22L2499.97 2684.11C2500.02 2683.98 2500.06 2683.83 2500.1 2683.66C2500.15 2683.49 2500.19 2683.33 2500.23 2683.16C2500.27 2682.99 2500.3 2682.83 2500.32 2682.7ZM2501.99 2688.27L2502.56 2687.91C2502.81 2688.1 2503.07 2688.31 2503.33 2688.55C2503.6 2688.79 2503.84 2689.03 2504.07 2689.27C2504.3 2689.5 2504.48 2689.72 2504.61 2689.92L2503.99 2690.33C2503.86 2690.13 2503.69 2689.91 2503.47 2689.67C2503.25 2689.42 2503.01 2689.18 2502.75 2688.94C2502.49 2688.69 2502.24 2688.47 2501.99 2688.27ZM2498.71 2687.94L2499.43 2688.15C2499.17 2688.57 2498.85 2688.98 2498.48 2689.37C2498.11 2689.76 2497.75 2690.1 2497.38 2690.37C2497.34 2690.33 2497.28 2690.28 2497.2 2690.22C2497.13 2690.17 2497.05 2690.11 2496.97 2690.06C2496.89 2690.01 2496.82 2689.96 2496.76 2689.93C2497.13 2689.69 2497.49 2689.39 2497.84 2689.04C2498.19 2688.68 2498.48 2688.31 2498.71 2687.94ZM2507.59 2685.55V2689.09H2506.87V2686.25H2505.42V2685.55H2507.59ZM2507.59 2688.78C2507.83 2689.15 2508.16 2689.43 2508.59 2689.61C2509.02 2689.78 2509.52 2689.88 2510.11 2689.91C2510.39 2689.92 2510.73 2689.92 2511.12 2689.93C2511.52 2689.93 2511.94 2689.93 2512.38 2689.93C2512.82 2689.92 2513.24 2689.91 2513.65 2689.9C2514.06 2689.89 2514.42 2689.87 2514.73 2689.85C2514.7 2689.9 2514.67 2689.97 2514.64 2690.06C2514.61 2690.15 2514.57 2690.24 2514.54 2690.33C2514.51 2690.42 2514.49 2690.51 2514.48 2690.59C2514.2 2690.6 2513.87 2690.6 2513.49 2690.61C2513.12 2690.62 2512.72 2690.63 2512.3 2690.63C2511.89 2690.64 2511.49 2690.64 2511.1 2690.63C2510.72 2690.62 2510.39 2690.62 2510.11 2690.61C2509.46 2690.58 2508.91 2690.48 2508.44 2690.29C2507.97 2690.1 2507.58 2689.81 2507.27 2689.41C2507.02 2689.63 2506.76 2689.85 2506.49 2690.06C2506.22 2690.28 2505.95 2690.5 2505.66 2690.72L2505.29 2689.98C2505.54 2689.82 2505.81 2689.64 2506.1 2689.43C2506.39 2689.22 2506.67 2689 2506.94 2688.78H2507.59ZM2505.58 2682.29L2506.11 2681.83C2506.32 2681.98 2506.54 2682.15 2506.76 2682.34C2506.99 2682.53 2507.19 2682.72 2507.38 2682.91C2507.57 2683.1 2507.71 2683.28 2507.82 2683.45L2507.25 2683.97C2507.15 2683.8 2507.01 2683.61 2506.82 2683.42C2506.64 2683.22 2506.44 2683.02 2506.23 2682.83C2506.02 2682.63 2505.8 2682.45 2505.58 2682.29ZM2509.59 2683.28L2510.06 2682.85C2510.38 2682.96 2510.72 2683.1 2511.07 2683.25C2511.43 2683.4 2511.77 2683.55 2512.1 2683.7C2512.43 2683.85 2512.71 2684 2512.93 2684.13L2512.43 2684.61C2512.22 2684.48 2511.96 2684.33 2511.63 2684.17C2511.31 2684.01 2510.97 2683.85 2510.61 2683.7C2510.25 2683.54 2509.91 2683.4 2509.59 2683.28ZM2508.63 2684.11H2513.8V2684.69H2509.34V2689.29H2508.63V2684.11ZM2513.45 2684.11H2514.17V2688.54C2514.17 2688.73 2514.15 2688.87 2514.1 2688.97C2514.05 2689.06 2513.96 2689.14 2513.83 2689.2C2513.7 2689.25 2513.52 2689.29 2513.3 2689.3C2513.09 2689.31 2512.81 2689.31 2512.47 2689.31C2512.46 2689.22 2512.43 2689.11 2512.39 2689C2512.35 2688.88 2512.31 2688.78 2512.26 2688.7C2512.5 2688.71 2512.71 2688.71 2512.9 2688.71C2513.09 2688.71 2513.22 2688.71 2513.28 2688.71C2513.35 2688.7 2513.39 2688.69 2513.41 2688.66C2513.44 2688.63 2513.45 2688.59 2513.45 2688.54V2684.11ZM2508.64 2682.01H2513.63V2682.61H2508.64V2682.01ZM2509.02 2685.57H2513.73V2686.13H2509.02V2685.57ZM2509.02 2687.04H2513.73V2687.63H2509.02V2687.04ZM2511.03 2684.35H2511.71V2689.25H2511.03V2684.35ZM2513.38 2682.01H2513.55L2513.7 2681.97L2514.17 2682.34C2513.94 2682.55 2513.69 2682.75 2513.4 2682.96C2513.11 2683.16 2512.81 2683.35 2512.5 2683.52C2512.19 2683.69 2511.88 2683.84 2511.57 2683.97C2511.52 2683.9 2511.46 2683.83 2511.38 2683.74C2511.3 2683.65 2511.23 2683.58 2511.17 2683.53C2511.45 2683.42 2511.73 2683.28 2512.01 2683.13C2512.29 2682.98 2512.55 2682.82 2512.79 2682.65C2513.03 2682.48 2513.23 2682.31 2513.38 2682.15V2682.01Z" fill="black"/>
<path d="M2489.05 2869.11H2491.15V2869.82H2489.05V2869.11ZM2490.69 2869.11H2491.51C2491.58 2869.87 2491.68 2870.59 2491.81 2871.27C2491.94 2871.94 2492.13 2872.56 2492.36 2873.12C2492.6 2873.67 2492.9 2874.16 2493.25 2874.58C2493.61 2875 2494.04 2875.34 2494.54 2875.6C2494.48 2875.63 2494.41 2875.68 2494.34 2875.75C2494.27 2875.82 2494.19 2875.89 2494.12 2875.96C2494.05 2876.03 2494 2876.1 2493.95 2876.16C2493.44 2875.87 2493.01 2875.5 2492.64 2875.06C2492.28 2874.61 2491.98 2874.11 2491.74 2873.54C2491.5 2872.97 2491.31 2872.34 2491.17 2871.66C2491.03 2870.97 2490.92 2870.24 2490.85 2869.47H2490.69V2869.11ZM2490.73 2871.04L2491.5 2871.16C2491.27 2872.29 2490.91 2873.28 2490.43 2874.11C2489.96 2874.94 2489.35 2875.63 2488.6 2876.16C2488.57 2876.11 2488.51 2876.06 2488.44 2875.99C2488.37 2875.92 2488.3 2875.85 2488.22 2875.78C2488.14 2875.71 2488.07 2875.65 2488.01 2875.6C2488.75 2875.13 2489.34 2874.51 2489.77 2873.74C2490.21 2872.97 2490.53 2872.07 2490.73 2871.04ZM2487.62 2872.55V2876.09H2486.89V2873.25H2485.49V2872.55H2487.62ZM2487.62 2875.76C2487.86 2876.13 2488.19 2876.4 2488.62 2876.58C2489.05 2876.76 2489.55 2876.86 2490.13 2876.88C2490.4 2876.89 2490.73 2876.9 2491.12 2876.91C2491.51 2876.91 2491.92 2876.91 2492.35 2876.9C2492.78 2876.89 2493.2 2876.88 2493.6 2876.87C2494 2876.86 2494.35 2876.84 2494.65 2876.82C2494.62 2876.87 2494.58 2876.95 2494.55 2877.04C2494.52 2877.13 2494.49 2877.23 2494.46 2877.32C2494.43 2877.42 2494.41 2877.51 2494.4 2877.58C2494.13 2877.59 2493.8 2877.6 2493.43 2877.61C2493.06 2877.62 2492.67 2877.62 2492.27 2877.62C2491.87 2877.63 2491.48 2877.63 2491.1 2877.62C2490.73 2877.62 2490.4 2877.62 2490.13 2877.61C2489.48 2877.58 2488.92 2877.48 2488.45 2877.29C2487.99 2877.1 2487.6 2876.81 2487.28 2876.41C2487.04 2876.62 2486.79 2876.84 2486.54 2877.05C2486.29 2877.27 2486.02 2877.49 2485.75 2877.72L2485.36 2876.95C2485.6 2876.79 2485.86 2876.61 2486.13 2876.4C2486.41 2876.19 2486.68 2875.97 2486.94 2875.76H2487.62ZM2485.6 2869.29L2486.15 2868.84C2486.37 2868.98 2486.59 2869.14 2486.82 2869.33C2487.05 2869.51 2487.25 2869.69 2487.44 2869.88C2487.63 2870.07 2487.79 2870.24 2487.91 2870.4L2487.31 2870.9C2487.21 2870.74 2487.06 2870.56 2486.87 2870.37C2486.68 2870.18 2486.48 2869.99 2486.25 2869.8C2486.03 2869.61 2485.81 2869.44 2485.6 2869.29ZM2496.37 2876.34H2503.67V2877.1H2496.37V2876.34ZM2496.39 2872.77H2503.67V2873.52H2496.39V2872.77ZM2495.97 2869.29H2504.07V2877.71H2503.3V2870.02H2496.71V2877.71H2495.97V2869.29ZM2499.56 2869.63H2500.32V2876.73H2499.56V2869.63ZM2507.59 2872.55V2876.09H2506.87V2873.25H2505.42V2872.55H2507.59ZM2507.59 2875.78C2507.83 2876.15 2508.16 2876.43 2508.59 2876.61C2509.02 2876.78 2509.52 2876.88 2510.11 2876.91C2510.39 2876.92 2510.73 2876.92 2511.12 2876.93C2511.52 2876.93 2511.94 2876.93 2512.38 2876.93C2512.82 2876.92 2513.24 2876.91 2513.65 2876.9C2514.06 2876.89 2514.42 2876.87 2514.73 2876.85C2514.7 2876.9 2514.67 2876.97 2514.64 2877.06C2514.61 2877.15 2514.57 2877.24 2514.54 2877.33C2514.51 2877.42 2514.49 2877.51 2514.48 2877.59C2514.2 2877.6 2513.87 2877.6 2513.49 2877.61C2513.12 2877.62 2512.72 2877.63 2512.3 2877.63C2511.89 2877.64 2511.49 2877.64 2511.1 2877.63C2510.72 2877.62 2510.39 2877.62 2510.11 2877.61C2509.46 2877.58 2508.91 2877.48 2508.44 2877.29C2507.97 2877.1 2507.58 2876.81 2507.27 2876.41C2507.02 2876.63 2506.76 2876.85 2506.49 2877.06C2506.22 2877.28 2505.95 2877.5 2505.66 2877.72L2505.29 2876.98C2505.54 2876.82 2505.81 2876.64 2506.1 2876.43C2506.39 2876.22 2506.67 2876 2506.94 2875.78H2507.59ZM2505.58 2869.29L2506.11 2868.83C2506.32 2868.98 2506.54 2869.15 2506.76 2869.34C2506.99 2869.53 2507.19 2869.72 2507.38 2869.91C2507.57 2870.1 2507.71 2870.28 2507.82 2870.45L2507.25 2870.97C2507.15 2870.8 2507.01 2870.61 2506.82 2870.42C2506.64 2870.22 2506.44 2870.02 2506.23 2869.83C2506.02 2869.63 2505.8 2869.45 2505.58 2869.29ZM2509.59 2870.28L2510.06 2869.85C2510.38 2869.96 2510.72 2870.1 2511.07 2870.25C2511.43 2870.4 2511.77 2870.55 2512.1 2870.7C2512.43 2870.85 2512.71 2871 2512.93 2871.13L2512.43 2871.61C2512.22 2871.48 2511.96 2871.33 2511.63 2871.17C2511.31 2871.01 2510.97 2870.85 2510.61 2870.7C2510.25 2870.54 2509.91 2870.4 2509.59 2870.28ZM2508.63 2871.11H2513.8V2871.69H2509.34V2876.29H2508.63V2871.11ZM2513.45 2871.11H2514.17V2875.54C2514.17 2875.73 2514.15 2875.87 2514.1 2875.97C2514.05 2876.06 2513.96 2876.14 2513.83 2876.2C2513.7 2876.25 2513.52 2876.29 2513.3 2876.3C2513.09 2876.31 2512.81 2876.31 2512.47 2876.31C2512.46 2876.22 2512.43 2876.11 2512.39 2876C2512.35 2875.88 2512.31 2875.78 2512.26 2875.7C2512.5 2875.71 2512.71 2875.71 2512.9 2875.71C2513.09 2875.71 2513.22 2875.71 2513.28 2875.71C2513.35 2875.7 2513.39 2875.69 2513.41 2875.66C2513.44 2875.63 2513.45 2875.59 2513.45 2875.54V2871.11ZM2508.64 2869.01H2513.63V2869.61H2508.64V2869.01ZM2509.02 2872.57H2513.73V2873.13H2509.02V2872.57ZM2509.02 2874.04H2513.73V2874.63H2509.02V2874.04ZM2511.03 2871.35H2511.71V2876.25H2511.03V2871.35ZM2513.38 2869.01H2513.55L2513.7 2868.97L2514.17 2869.34C2513.94 2869.55 2513.69 2869.75 2513.4 2869.96C2513.11 2870.16 2512.81 2870.35 2512.5 2870.52C2512.19 2870.69 2511.88 2870.84 2511.57 2870.97C2511.52 2870.9 2511.46 2870.83 2511.38 2870.74C2511.3 2870.65 2511.23 2870.58 2511.17 2870.53C2511.45 2870.42 2511.73 2870.28 2512.01 2870.13C2512.29 2869.98 2512.55 2869.82 2512.79 2869.65C2513.03 2869.48 2513.23 2869.31 2513.38 2869.15V2869.01Z" fill="black"/>
<path d="M2485.62 2783.29H2494.42V2784.03H2485.62V2783.29ZM2486.14 2785.78H2493.9V2786.52H2486.14V2785.78ZM2489.59 2781.6H2490.38V2790.79H2489.59V2781.6ZM2489.4 2786.15L2490 2786.41C2489.77 2786.8 2489.49 2787.18 2489.18 2787.56C2488.87 2787.93 2488.53 2788.29 2488.17 2788.62C2487.81 2788.95 2487.44 2789.26 2487.05 2789.53C2486.67 2789.8 2486.29 2790.04 2485.91 2790.23C2485.87 2790.17 2485.82 2790.1 2485.75 2790.01C2485.69 2789.93 2485.62 2789.85 2485.55 2789.78C2485.48 2789.7 2485.42 2789.63 2485.36 2789.58C2485.73 2789.41 2486.11 2789.21 2486.5 2788.97C2486.89 2788.72 2487.26 2788.45 2487.62 2788.15C2487.98 2787.84 2488.31 2787.52 2488.61 2787.18C2488.92 2786.84 2489.18 2786.5 2489.4 2786.15ZM2490.57 2786.11C2490.79 2786.46 2491.05 2786.8 2491.36 2787.14C2491.67 2787.47 2492.01 2787.79 2492.37 2788.1C2492.74 2788.41 2493.12 2788.68 2493.51 2788.93C2493.9 2789.18 2494.29 2789.38 2494.67 2789.55C2494.61 2789.6 2494.54 2789.66 2494.47 2789.74C2494.4 2789.82 2494.33 2789.9 2494.26 2789.98C2494.2 2790.06 2494.15 2790.14 2494.1 2790.21C2493.72 2790.02 2493.34 2789.78 2492.95 2789.5C2492.56 2789.22 2492.19 2788.91 2491.82 2788.58C2491.45 2788.24 2491.11 2787.88 2490.8 2787.51C2490.49 2787.14 2490.21 2786.76 2489.97 2786.37L2490.57 2786.11ZM2497.11 2785.83H2504.41V2786.36H2497.11V2785.83ZM2497.1 2783.77H2504.27V2784.27H2497.1V2783.77ZM2500.33 2786.02H2501.04V2789.13H2500.33V2786.02ZM2498.86 2783.02H2499.57V2784.96H2501.87V2783.02H2502.61V2785.43H2498.86V2783.02ZM2498.43 2788.33V2788.95H2503.08V2788.33H2498.43ZM2498.43 2787.29V2787.9H2503.08V2787.29H2498.43ZM2497.74 2786.85H2503.8V2789.39H2497.74V2786.85ZM2501.34 2789.96L2501.85 2789.53C2502.17 2789.61 2502.49 2789.7 2502.82 2789.8C2503.15 2789.9 2503.46 2790 2503.75 2790.1C2504.04 2790.2 2504.3 2790.3 2504.51 2790.39L2503.82 2790.83C2503.54 2790.7 2503.18 2790.56 2502.73 2790.4C2502.28 2790.24 2501.82 2790.09 2501.34 2789.96ZM2499.49 2789.51L2500.1 2789.91C2499.87 2790.03 2499.6 2790.15 2499.29 2790.27C2498.98 2790.39 2498.67 2790.5 2498.34 2790.59C2498.02 2790.68 2497.71 2790.76 2497.42 2790.82C2497.37 2790.75 2497.29 2790.66 2497.2 2790.56C2497.11 2790.47 2497.02 2790.39 2496.95 2790.32C2497.25 2790.27 2497.56 2790.19 2497.88 2790.1C2498.2 2790.01 2498.5 2789.92 2498.79 2789.82C2499.08 2789.71 2499.31 2789.61 2499.49 2789.51ZM2496.69 2782.45H2504.44V2783.1H2496.69V2782.45ZM2496.28 2782.45H2497V2785.32C2497 2785.71 2496.99 2786.14 2496.96 2786.61C2496.94 2787.08 2496.89 2787.55 2496.82 2788.04C2496.75 2788.52 2496.64 2788.99 2496.5 2789.45C2496.36 2789.91 2496.17 2790.33 2495.94 2790.71C2495.9 2790.67 2495.84 2790.62 2495.76 2790.57C2495.69 2790.52 2495.61 2790.48 2495.52 2790.43C2495.44 2790.38 2495.37 2790.35 2495.31 2790.33C2495.54 2789.96 2495.71 2789.57 2495.84 2789.15C2495.97 2788.72 2496.07 2788.29 2496.13 2787.84C2496.19 2787.39 2496.23 2786.96 2496.25 2786.53C2496.27 2786.1 2496.28 2785.69 2496.28 2785.32V2782.45ZM2499.87 2781.6H2500.62V2782.89H2499.87V2781.6ZM2507.59 2785.55V2789.09H2506.87V2786.25H2505.42V2785.55H2507.59ZM2507.59 2788.78C2507.83 2789.15 2508.16 2789.43 2508.59 2789.61C2509.02 2789.78 2509.52 2789.88 2510.11 2789.91C2510.39 2789.92 2510.73 2789.92 2511.12 2789.93C2511.52 2789.93 2511.94 2789.93 2512.38 2789.93C2512.82 2789.92 2513.24 2789.91 2513.65 2789.9C2514.06 2789.89 2514.42 2789.87 2514.73 2789.85C2514.7 2789.9 2514.67 2789.97 2514.64 2790.06C2514.61 2790.15 2514.57 2790.24 2514.54 2790.33C2514.51 2790.42 2514.49 2790.51 2514.48 2790.59C2514.2 2790.6 2513.87 2790.6 2513.49 2790.61C2513.12 2790.62 2512.72 2790.63 2512.3 2790.63C2511.89 2790.64 2511.49 2790.64 2511.1 2790.63C2510.72 2790.62 2510.39 2790.62 2510.11 2790.61C2509.46 2790.58 2508.91 2790.48 2508.44 2790.29C2507.97 2790.1 2507.58 2789.81 2507.27 2789.41C2507.02 2789.63 2506.76 2789.85 2506.49 2790.06C2506.22 2790.28 2505.95 2790.5 2505.66 2790.72L2505.29 2789.98C2505.54 2789.82 2505.81 2789.64 2506.1 2789.43C2506.39 2789.22 2506.67 2789 2506.94 2788.78H2507.59ZM2505.58 2782.29L2506.11 2781.83C2506.32 2781.98 2506.54 2782.15 2506.76 2782.34C2506.99 2782.53 2507.19 2782.72 2507.38 2782.91C2507.57 2783.1 2507.71 2783.28 2507.82 2783.45L2507.25 2783.97C2507.15 2783.8 2507.01 2783.61 2506.82 2783.42C2506.64 2783.22 2506.44 2783.02 2506.23 2782.83C2506.02 2782.63 2505.8 2782.45 2505.58 2782.29ZM2509.59 2783.28L2510.06 2782.85C2510.38 2782.96 2510.72 2783.1 2511.07 2783.25C2511.43 2783.4 2511.77 2783.55 2512.1 2783.7C2512.43 2783.85 2512.71 2784 2512.93 2784.13L2512.43 2784.61C2512.22 2784.48 2511.96 2784.33 2511.63 2784.17C2511.31 2784.01 2510.97 2783.85 2510.61 2783.7C2510.25 2783.54 2509.91 2783.4 2509.59 2783.28ZM2508.63 2784.11H2513.8V2784.69H2509.34V2789.29H2508.63V2784.11ZM2513.45 2784.11H2514.17V2788.54C2514.17 2788.73 2514.15 2788.87 2514.1 2788.97C2514.05 2789.06 2513.96 2789.14 2513.83 2789.2C2513.7 2789.25 2513.52 2789.29 2513.3 2789.3C2513.09 2789.31 2512.81 2789.31 2512.47 2789.31C2512.46 2789.22 2512.43 2789.11 2512.39 2789C2512.35 2788.88 2512.31 2788.78 2512.26 2788.7C2512.5 2788.71 2512.71 2788.71 2512.9 2788.71C2513.09 2788.71 2513.22 2788.71 2513.28 2788.71C2513.35 2788.7 2513.39 2788.69 2513.41 2788.66C2513.44 2788.63 2513.45 2788.59 2513.45 2788.54V2784.11ZM2508.64 2782.01H2513.63V2782.61H2508.64V2782.01ZM2509.02 2785.57H2513.73V2786.13H2509.02V2785.57ZM2509.02 2787.04H2513.73V2787.63H2509.02V2787.04ZM2511.03 2784.35H2511.71V2789.25H2511.03V2784.35ZM2513.38 2782.01H2513.55L2513.7 2781.97L2514.17 2782.34C2513.94 2782.55 2513.69 2782.75 2513.4 2782.96C2513.11 2783.16 2512.81 2783.35 2512.5 2783.52C2512.19 2783.69 2511.88 2783.84 2511.57 2783.97C2511.52 2783.9 2511.46 2783.83 2511.38 2783.74C2511.3 2783.65 2511.23 2783.58 2511.17 2783.53C2511.45 2783.42 2511.73 2783.28 2512.01 2783.13C2512.29 2782.98 2512.55 2782.82 2512.79 2782.65C2513.03 2782.48 2513.23 2782.31 2513.38 2782.15V2782.01Z" fill="black"/>
</g>
<defs>
<clipPath id="clip0_253_2">
<rect width="5000" height="5000" fill="white"/>
</clipPath>
</defs>
</svg>
