<svg width="5000" height="5000" viewBox="0 0 5000 5000" fill="none" xmlns="http://www.w3.org/2000/svg">
<path d="M2544 2289.5H2464.5L2463 2394.5M2544 2289.5H2613M2544 2289.5L2545 2360.5M2613 2289.5H2661M2613 2289.5L2606.5 2327.5V2360.5M2661 2289.5H2741.5M2661 2289.5V2327.5V2360.5M2661 2289.5V2207M3150.5 2770V2645.5L3140.5 2613.5L3104 2520L3028 2374L2994.5 2322.5L2980 2307L2947.5 2287L2893 2280H2817.5L2741.5 2289.5M2741.5 2289.5V2360.5M2817.5 2280V2360.5M2893 2280L2894 2360.5M2994.5 2322.5L2959.5 2360.5M3028 2374L2994.5 2400.5L2962 2406M3104 2520L3028 2548L2995 2552M3140.5 2613.5L3095 2628.5L3040 2632M3150.5 2770L3142.5 2775M3150.5 2770L3158 2775L3162 2782.5L3158 2790.5L3150.5 2795L3142.5 2790.5L3139 2782.5L3142.5 2775M3142.5 2775L3125.5 2768.5L3087.5 2757.5L3051 2742.5M3051 2742.5L3000 2719.5L2966.5 2703.5H2933.5M3051 2742.5L3095 2763.5L3150.5 2782.5L3193.5 2775L3324.5 2757.5L3449 2703.5M3051 2742.5L3040 2632M2933.5 2703.5H2816.5M2933.5 2703.5V2632M2657 2692L2723.5 2703.5H2816.5M2816.5 2703.5L2817.5 2619M2723.5 2703.5V2619M2657 2692L2609 2687.5H2533M2657 2692V2622.5M2533 2687.5H2451L2457 2614.5M2533 2687.5V2622.5M2457 2614.5L2463 2521.5M2457 2614.5L2533 2622.5M2463 2521.5V2394.5M2463 2521.5H2545M2463 2394.5L2451 2322.5L2440.5 2251V2189M2463 2394.5H2545M2533 2622.5L2545 2569.5V2521.5M2533 2622.5L2606.5 2619M2545 2521.5V2394.5M2545 2521.5H2606.5M2545 2394.5V2360.5M2545 2394.5H2606.5M2606.5 2360.5V2394.5M2606.5 2360.5H2661M2606.5 2360.5H2545M2606.5 2394.5V2521.5M2606.5 2394.5H2661M2606.5 2521.5V2619M2606.5 2521.5L2657 2530.5M2606.5 2619L2657 2622.5M2657 2622.5L2723.5 2619M2657 2622.5V2530.5M2723.5 2619H2817.5M2723.5 2619L2734.5 2548M2817.5 2619L2933.5 2632M2817.5 2619V2548M2933.5 2632H3040M2933.5 2632V2548M3040 2632L3033 2594.5L3013 2569.5L2995 2552M2995 2552L2933.5 2548M2995 2552L2980 2530.5L2966.5 2496L2962 2449V2406M2933.5 2548H2817.5M2933.5 2548V2530.5L2905 2476L2894 2445V2406M2817.5 2548H2734.5M2817.5 2548V2406M2734.5 2548H2711.5L2657 2530.5M2734.5 2548L2741.5 2530.5V2394.5M2657 2530.5L2661 2470V2394.5M2661 2394.5V2360.5M2661 2394.5H2741.5M2661 2360.5H2741.5M2741.5 2394.5V2360.5M2741.5 2394.5H2763L2783.5 2406H2817.5M2817.5 2360.5V2406M2817.5 2360.5H2741.5M2817.5 2360.5H2894M2817.5 2406H2894M2894 2360.5H2959.5M2894 2360.5V2406M2959.5 2360.5L2962 2406M2894 2406H2962M2440.5 2189H2334.5M2947.5 2179.5L2784.5 2207C2784.5 2207 2663.8 2209 2661 2207L2527.5 2189H2440.5" stroke="#0019FF" stroke-width="2"/>
</svg>
